<?xml version="1.0" encoding="UTF-8"?>
<svg version="1.0" viewBox="0 0 225 192" xmlns="http://www.w3.org/2000/svg" xmlns:cc="http://creativecommons.org/ns#" xmlns:dc="http://purl.org/dc/elements/1.1/" xmlns:rdf="http://www.w3.org/1999/02/22-rdf-syntax-ns#">
 <g transform="translate(0 192) scale(-.1)">
  <path d="m-1732.4 1202c3-2 7-14 9-27 2-12 12-28 22-35 13-9 14-17 7-26-6-8-16-45-24-83-10-57-10-70 1-76 15-10 67-1 88 14 41 31 180 179 241 256 24 30 49 60 55 65 6 6 25 34 44 63 34 53 57 70 42 30-8-22-3-68 8-68 3 0 6-33 7-73 1-39 7-85 14-102 8-19 12-68 11-130-1-56 2-95 7-88 5 8 8-9 8-40 1-72 9-140 18-155 4-7 3-12-2-12-14 0-21-92-8-109 8-11 8-13-2-7s-11 1-6-21c4-15 11-31 17-34 6-4 5-9-1-13-7-4-7-17-2-37 5-16 6-37 3-45s0-14 6-14 11-7 11-16c0-8-4-12-10-9-5 3-12-7-15-22-4-15-10-36-16-45-14-27-11-56 8-67 15-9 16-12 4-20-11-7-9-11 8-20 12-7 19-17 15-22-4-6 2-9 13-7s27-3 36-10c13-11 21-11 47 3 17 9 36 27 42 40 7 15 21 25 37 27l26 3 3 110c5 166 5 187-1 220-3 17-8 83-12 148-3 65-13 142-20 171-7.9999 29-19 90-24 135-6 45-15 89-20 99-5 9-12 42-16 72s-12 64-17 74c-6 11-16 42-24 70-7 28-15 62-19 76-6 23-5 24 8 8 8-10 19-18 26-18 6 0 11-7 11-15s8-23 17-33c10-10 37-41 59-68 77-90 84-99 108-125 13-15 32-41 42-58s22-31 26-31 14-13 23-30c8-16 29-46 47-65 26-30 35-35 60-30 25 6 35 0 78-44s53-50 70-41c34 18 27 82-18 149-60 89-117 164-151 195-17 17-31 33-31 38 0 11-38 48-49 48-5 0-17 12-26 28-16 24-85 95-85 86 0-1-33 31-73 73-215 224-215 224-244 217-16-4-36-14-46-22-17-15-17-17-1-29 14-10 15-18 7-45-6-21-15-32-25-30-20 3-42-24-34-43 3-10 2-13-5-9-14 8-59-35-59-57 0-12-5-16-15-13-10 4-18-3-25-21-6-15-19-29-30-32-10-3-26-16-35-29-8-13-22-24-29-24-8 0-29-14-47-31s-51-40-73-51c-40-19-108-82-100-91zm610 503c8 0 12 5 9 10-4 6-11 8-16 5-14-9-11-15 7-15z" fill="currentColor" stroke="none"/>
 </g>
</svg>
