<?xml version="1.0" encoding="UTF-8" standalone="no"?>
<!-- Created with Inkscape (http://www.inkscape.org/) -->

<svg
   width="3e3"
   height="3e3"
   version="1.1"
   viewBox="0 0 793.75 793.75"
   id="svg170"
   sodipodi:docname="credits.svg"
   inkscape:export-filename="/home/jumplink/Cloud/Art+Code/A R T + C O D E   S T U D I O/K U N D E N/Gymnasium Otterndorf/Eigenes Material/pages/credits.png"
   inkscape:export-xdpi="38.400002"
   inkscape:export-ydpi="38.400002"
   inkscape:version="1.1 (c68e22c387, 2021-05-23)"
   xmlns:inkscape="http://www.inkscape.org/namespaces/inkscape"
   xmlns:sodipodi="http://sodipodi.sourceforge.net/DTD/sodipodi-0.dtd"
   xmlns="http://www.w3.org/2000/svg"
   xmlns:svg="http://www.w3.org/2000/svg">
  <defs
     id="defs174" />
  <sodipodi:namedview
     id="namedview172"
     pagecolor="#ffffff"
     bordercolor="#666666"
     borderopacity="1.0"
     inkscape:pageshadow="2"
     inkscape:pageopacity="0.0"
     inkscape:pagecheckerboard="0"
     showgrid="false"
     inkscape:zoom="0.291"
     inkscape:cx="1500"
     inkscape:cy="1498.2818"
     inkscape:window-width="2560"
     inkscape:window-height="1403"
     inkscape:window-x="0"
     inkscape:window-y="0"
     inkscape:window-maximized="1"
     inkscape:current-layer="svg170" />
  <path
     d="m-132.29-131h1058.3v1058.3h-1058.3z"
     fill="#fff"
     stroke-width=".4667"
     id="path2" />
  <g
     transform="matrix(.28993 0 0 .28993 594.33 600.94)"
     fill="#1d1d1b"
     id="g40">
    <path
       class="st0"
       d="m231.54 117.48v-45.63h-91.25v45.63h45.62z"
       id="path4" />
    <path
       class="st0"
       d="m94.68 117.48h45.61v45.63h-45.61z"
       id="path6" />
    <path
       class="st0"
       d="m94.68 300v-136.89h-45.65v136.89z"
       id="path8" />
    <path
       class="st0"
       d="m94.68 300h45.61v45.63h-45.61z"
       id="path10" />
    <path
       class="st0"
       d="m459.69 117.48h45.63v45.63h-45.63z"
       id="path12" />
    <path
       class="st0"
       d="m459.69 117.48v-45.63h-91.26v45.63h45.63z"
       id="path14" />
    <path
       class="st0"
       d="m322.83 117.48h45.6v45.63h-45.6z"
       id="path16" />
    <path
       class="st0"
       d="m277.17 163.11h45.65v45.63h-45.65z"
       id="path18" />
    <path
       class="st0"
       d="m231.54 117.48h45.63v45.63h-45.63z"
       id="path20" />
    <path
       class="st0"
       d="m414.06 345.65h45.63v45.6h-45.63z"
       id="path22" />
    <path
       class="st0"
       d="m459.69 300h45.65v45.63h-45.65z"
       id="path24" />
    <path
       class="st0"
       d="m277.17 482.52h45.65v45.63h-45.65z"
       id="path26" />
    <path
       class="st0"
       d="m505.34 163.11v136.89h45.63v-136.89z"
       id="path28" />
    <path
       class="st0"
       d="m368.43 391.26h45.63v45.63h-45.63z"
       id="path30" />
    <path
       class="st0"
       d="m322.83 436.89h45.6v45.63h-45.6z"
       id="path32" />
    <path
       class="st0"
       d="m140.29 345.65h45.63v45.6h-45.63z"
       id="path34" />
    <path
       class="st0"
       d="m185.91 391.26h45.63v45.63h-45.63z"
       id="path36" />
    <path
       class="st0"
       d="m231.54 436.89h45.63v45.63h-45.63z"
       id="path38" />
  </g>
  <g
     stroke-width="1.1576"
     aria-label="API"
     id="g48">
    <path
       d="m224.9 489.48v-105.83h26.458v26.458h52.917v-26.458h26.458v105.83h-26.458v-52.917h-52.917v52.917zm26.458-132.29v26.458h52.917v-26.458z"
       id="path42" />
    <path
       d="m383.01 489.48v-132.29h79.375v26.458h-52.917v26.458h52.917v26.458h-52.917v52.917zm79.375-105.83h26.458v26.458h-26.458z"
       id="path44" />
    <path
       d="m541.76 489.48v-132.29h26.458v132.29z"
       id="path46" />
  </g>
  <path
     d="m39.688 39.687h79.375v92.604h-79.375z"
     fill="#4074ba"
     stroke-width=".2499"
     id="path50" />
  <g
     fill="#fff"
     stroke-width=".27781"
     aria-label="G"
     id="g54">
    <path
       d="m105.9 66.148h-39.687v-13.229h39.687zm-39.687 39.688h-13.229v-39.688h13.229zm26.458 13.229h-26.458v-13.229h26.458zm-26.458 0m26.458-26.458h-13.229v-13.229h26.458v26.458h-13.229z"
       id="path52" />
  </g>
  <g
     transform="translate(-291.04 -383.65)"
     id="g62">
    <path
       d="m423.33 423.33h79.375v92.604h-79.375z"
       fill="#72b62f"
       stroke-width=".2499"
       id="path56" />
    <g
       fill="#fff"
       stroke-width=".27781"
       aria-label="O"
       id="g60">
      <path
         d="m476.32 449.79h-26.458v-13.229h26.458zm-26.458 39.688h-13.229v-39.688h13.229zm26.458 13.229h-26.458v-13.229h26.458zm-26.458 0m39.688-13.229h-13.229v-39.688h13.229z"
         id="path58" />
    </g>
  </g>
  <path
     d="m39.688 145.52h79.375v92.604h-79.375z"
     fill="#15692f"
     stroke-width=".2499"
     id="path64" />
  <g
     fill="#fff"
     stroke-width=".27781"
     aria-label="A"
     id="g68">
    <path
       d="m52.917 224.9v-52.917h13.229v13.229h26.458v-13.229h13.229v52.917h-13.229v-26.458h-26.458v26.458zm13.229-66.146v13.229h26.458v-13.229z"
       id="path66" />
  </g>
  <path
     d="m132.29 145.52h79.375v92.604h-79.375z"
     fill="#8aced0"
     stroke-width=".2499"
     id="path70" />
  <g
     fill="#fff"
     stroke-width=".27781"
     aria-label="G"
     id="g74">
    <path
       d="m198.51 171.98h-39.688v-13.229h39.688zm-39.688 39.688h-13.229v-39.688h13.229zm26.458 13.229h-26.458v-13.229h26.458zm-26.458 0m26.458-26.458h-13.229v-13.229h26.458v26.458h-13.229z"
       id="path72" />
  </g>
  <g
     stroke-width=".23336"
     id="g162">
    <g
       fill="#15692f"
       aria-label="Gymnasium"
       id="g94">
      <path
         d="m259.36 58.159h-15.875v-5.2917h15.875zm-15.875 15.875h-5.2917v-15.875h5.2917zm10.583 5.2917h-10.583v-5.2917h10.583zm-10.583 0m10.583-10.583h-5.2917v-5.2917h10.583v10.583h-5.2917z"
         id="path76" />
      <path
         d="m285.82 58.159h5.2917v5.2917h-5.2917zm-10.583 0h5.2917v5.2917h-5.2917zm5.2917 21.167v-15.875h5.2917v15.875zm-10.583-26.458h5.2917v5.2917h-5.2917zm21.167 0h5.2917v5.2917h-5.2917z"
         id="path78" />
      <path
         d="m306.99 79.325v-26.458h5.2917v26.458zm21.167 0v-26.458h5.2917v26.458zm-5.2917-21.167h5.2917v5.2917h-5.2917zm-5.2917 5.2917h5.2917v5.2917h-5.2917zm-5.2917-5.2917h5.2917v5.2917h-5.2917z"
         id="path80" />
      <path
         d="m344.03 79.325v-26.458h5.2917v26.458zm21.167 0v-26.458h5.2917v26.458zm-5.2917-10.583h5.2917v5.2917h-5.2917zm-5.2917-5.2917h5.2917v5.2917h-5.2917zm-5.2917-5.2917h5.2917v5.2917h-5.2917z"
         id="path82" />
      <path
         d="m381.2 79.325v-21.167h5.2917v5.2917h10.583v-5.2917h5.2917v21.167h-5.2917v-10.583h-10.583v10.583zm5.2917-26.458v5.2917h10.583v-5.2917z"
         id="path84" />
      <path
         d="m412.82 79.325v-5.2917h15.875v5.2917zm5.2917-21.167v-5.2917h15.875v5.2917zm0 10.583h10.583v-5.2917h-10.583zm10.583 0h5.2917v5.2917h-5.2917zm-15.875-10.583h5.2917v5.2917h-5.2917z"
         id="path86" />
      <path
         d="m444.57 79.325v-26.458h5.2917v26.458z"
         id="path88" />
      <path
         d="m476.32 52.867h5.2917v21.167h-5.2917zm0 26.458h-10.583v-5.2917h10.583zm-15.875-26.458h5.2917v21.167h-5.2917z"
         id="path90" />
      <path
         d="m492.2 79.325v-26.458h5.2917v26.458zm21.167 0v-26.458h5.2917v26.458zm-5.2917-21.167h5.2917v5.2917h-5.2917zm-5.2917 5.2917h5.2917v5.2917h-5.2917zm-5.2917-5.2917h5.2917v5.2917h-5.2917z"
         id="path92" />
    </g>
    <g
       fill="#15692f"
       aria-label="OtternDORF"
       id="g116">
      <path
         d="m254.07 97.908h-10.583v-5.2917h10.583zm-10.583 15.875h-5.2917v-15.875h5.2917zm10.583 5.2917h-10.583v-5.2917h10.583zm-10.583 0m15.875-5.2917h-5.2917v-15.875h5.2917z"
         id="path96" />
      <path
         d="m275.24 119.07v-21.167h-5.2917v-5.2917h15.875v5.2917h-5.2917v21.167z"
         id="path98" />
      <path
         d="m301.7 119.07v-21.167h-5.2917v-5.2917h15.875v5.2917h-5.2917v21.167z"
         id="path100" />
      <path
         d="m338.74 97.908h-10.583v5.2917h10.583v5.2917h-10.583v5.2917h10.583v5.2917h-15.875v-26.458h15.875z"
         id="path102" />
      <path
         d="m349.32 119.07v-26.458h15.875v5.2917h-10.583v5.2917h10.583v5.2917h-10.583v10.583zm15.875-21.167h5.2917v5.2917h-5.2917zm-5.2917 10.583h5.2917v5.2917h-5.2917zm5.2917 5.2917h5.2917v5.2917h-5.2917z"
         id="path104" />
      <path
         d="m381.07 119.07v-26.458h5.2917v26.458zm21.167 0v-26.458h5.2917v26.458zm-5.2917-10.583h5.2917v5.2917h-5.2917zm-5.2917-5.2917h5.2917v5.2917h-5.2917zm-5.2917-5.2917h5.2917v5.2917h-5.2917z"
         id="path106" />
      <path
         d="m418.11 119.07v-26.458h15.875v5.2917h-10.583v15.875h10.583v5.2917zm21.167-21.167v15.875h-5.2917v-15.875z"
         id="path108" />
      <path
         d="m465.74 97.908h-10.583v-5.2917h10.583zm-10.583 15.875h-5.2917v-15.875h5.2917zm10.583 5.2917h-10.583v-5.2917h10.583zm-10.583 0m15.875-5.2917h-5.2917v-15.875h5.2917z"
         id="path110" />
      <path
         d="m481.61 119.07v-26.458h15.875v5.2917h-10.583v5.2917h10.583v5.2917h-10.583v10.583zm15.875-21.167h5.2917v5.2917h-5.2917zm-5.2917 10.583h5.2917v5.2917h-5.2917zm5.2917 5.2917h5.2917v5.2917h-5.2917z"
         id="path112" />
      <path
         d="m513.36 119.07v-26.458h15.875v5.2917h-10.583v5.2917h10.583v5.2917h-10.583v10.583z"
         id="path114" />
    </g>
    <g
       fill="#b8db97"
       aria-label="OfFENE"
       id="g130">
      <path
         d="m254 164.04h-10.583v-5.2917h10.583zm-10.583 15.875h-5.2917v-15.875h5.2917zm10.583 5.2917h-10.583v-5.2917h10.583zm-10.583 0m15.875-5.2917h-5.2917v-15.875h5.2917z"
         id="path118" />
      <path
         d="m269.87 185.21v-26.458h15.875v5.2917h-10.583v5.2917h10.583v5.2917h-10.583v10.583z"
         id="path120" />
      <path
         d="m296.33 185.21v-26.458h15.875v5.2917h-10.583v5.2917h10.583v5.2917h-10.583v10.583z"
         id="path122" />
      <path
         d="m338.67 164.04h-10.583v5.2917h10.583v5.2917h-10.583v5.2917h10.583v5.2917h-15.875v-26.458h15.875z"
         id="path124" />
      <path
         d="m349.25 185.21v-26.458h5.2917v26.458zm21.167 0v-26.458h5.2917v26.458zm-5.2917-10.583h5.2917v5.2917h-5.2917zm-5.2917-5.2917h5.2917v5.2917h-5.2917zm-5.2917-5.2917h5.2917v5.2917h-5.2917z"
         id="path126" />
      <path
         d="m402.17 164.04h-10.583v5.2917h10.583v5.2917h-10.583v5.2917h10.583v5.2917h-15.875v-26.458h15.875z"
         id="path128" />
    </g>
    <g
       fill="#b8db97"
       aria-label="GANZTAGSSCHULE"
       id="g160">
      <path
         d="m259.36 203.64h-15.875v-5.2917h15.875zm-15.875 15.875h-5.2917v-15.875h5.2917zm10.583 5.2917h-10.583v-5.2917h10.583zm-10.583 0m10.583-10.583h-5.2917v-5.2917h10.583v10.583h-5.2917z"
         id="path132" />
      <path
         d="m270.07 224.81v-21.167h5.2917v5.2917h10.583v-5.2917h5.2917v21.167h-5.2917v-10.583h-10.583v10.583zm5.2917-26.458v5.2917h10.583v-5.2917z"
         id="path134" />
      <path
         d="m301.7 224.81v-26.458h5.2917v26.458zm21.167 0v-26.458h5.2917v26.458zm-5.2917-10.583h5.2917v5.2917h-5.2917zm-5.2917-5.2917h5.2917v5.2917h-5.2917zm-5.2917-5.2917h5.2917v5.2917h-5.2917z"
         id="path136" />
      <path
         d="m338.74 224.81v-10.583h5.2917v5.2917h10.583v5.2917zm15.875-26.458v10.583h-5.2917v-5.2917h-10.583v-5.2917zm-10.583 10.583h5.2917v5.2917h-5.2917z"
         id="path138" />
      <path
         d="m370.49 224.81v-21.167h-5.2917v-5.2917h15.875v5.2917h-5.2917v21.167z"
         id="path140" />
      <path
         d="m391.78 224.81v-21.167h5.2917v5.2917h10.583v-5.2917h5.2917v21.167h-5.2917v-10.583h-10.583v10.583zm5.2917-26.458v5.2917h10.583v-5.2917z"
         id="path142" />
      <path
         d="m444.57 203.64h-15.875v-5.2917h15.875zm-15.875 15.875h-5.2917v-15.875h5.2917zm10.583 5.2917h-10.583v-5.2917h10.583zm-10.583 0m10.583-10.583h-5.2917v-5.2917h10.583v10.583h-5.2917z"
         id="path144" />
      <path
         d="m455.16 224.81v-5.2917h15.875v5.2917zm5.2917-21.167v-5.2917h15.875v5.2917zm0 10.583h10.583v-5.2917h-10.583zm10.583 0h5.2917v5.2917h-5.2917zm-15.875-10.583h5.2917v5.2917h-5.2917z"
         id="path146" />
      <path
         d="m486.91 224.81v-5.2917h15.875v5.2917zm5.2917-21.167v-5.2917h15.875v5.2917zm0 10.583h10.583v-5.2917h-10.583zm10.583 0h5.2917v5.2917h-5.2917zm-15.875-10.583h5.2917v5.2917h-5.2917z"
         id="path148" />
      <path
         d="m539.82 208.93h-5.2917v-5.2917h5.2917zm-5.2917-5.2917h-10.583v-5.2917h10.583zm5.2917 15.875h-5.2917v-5.2917h5.2917zm-15.875 0h-5.2917v-15.875h5.2917zm10.583 5.2917h-10.583v-5.2917h10.583z"
         id="path150" />
      <path
         d="m550.41 224.81v-26.458h5.2917v10.583h10.583v-10.583h5.2917v26.458h-5.2917v-10.583h-10.583v10.583z"
         id="path152" />
      <path
         d="m598.03 198.35h5.2917v21.167h-5.2917zm0 26.458h-10.583v-5.2917h10.583zm-15.875-26.458h5.2917v21.167h-5.2917z"
         id="path154" />
      <path
         d="m619.2 219.52h10.583v5.2917h-15.875v-26.458h5.2917z"
         id="path156" />
      <path
         d="m656.24 203.64h-10.583v5.2917h10.583v5.2917h-10.583v5.2917h10.583v5.2917h-15.875v-26.458h15.875z"
         id="path158" />
    </g>
  </g>
  <style
     type="text/css"
     id="style164">.st0{fill:#4074BA;}
	.st1{fill:#72B62F;}
	.st2{fill:#8ACED0;}
	.st3{fill:#15692F;}
	.st4{fill:none;}
	.st5{enable-background:new    ;}
	.st6{fill:#016930;}</style>
  <style
     type="text/css"
     id="style166">.st0{fill:#1D1D1B;}</style>
  <style
     type="text/css"
     id="style168">.st0{fill:#1D1D1B;}</style>
</svg>
