<?xml version="1.0" encoding="UTF-8" standalone="no"?>
<!-- Generator: Adobe Illustrator 21.1.0, SVG Export Plug-In . SVG Version: 6.00 Build 0)  -->

<svg
   version="1.1"
   id="Ebene_1"
   x="0px"
   y="0px"
   viewBox="0 0 481.22516 481.22516"
   xml:space="preserve"
   sodipodi:docname="footer_icon_standins.svg"
   width="5.0127621in"
   height="5.0127621in"
   inkscape:version="1.1 (c68e22c387, 2021-05-23)"
   xmlns:inkscape="http://www.inkscape.org/namespaces/inkscape"
   xmlns:sodipodi="http://sodipodi.sourceforge.net/DTD/sodipodi-0.dtd"
   xmlns:xlink="http://www.w3.org/1999/xlink"
   xmlns="http://www.w3.org/2000/svg"
   xmlns:svg="http://www.w3.org/2000/svg"><defs
   id="defs2168"><linearGradient
     inkscape:collect="always"
     id="linearGradient6528"><stop
       style="stop-color:#000000;stop-opacity:1;"
       offset="0"
       id="stop6524" /><stop
       style="stop-color:#000000;stop-opacity:0;"
       offset="1"
       id="stop6526" /></linearGradient><linearGradient
     id="linearGradient5284"
     inkscape:swatch="solid"><stop
       style="stop-color:#000000;stop-opacity:1;"
       offset="0"
       id="stop5282" /></linearGradient><linearGradient
     inkscape:collect="always"
     xlink:href="#linearGradient6528"
     id="linearGradient6520"
     x1="39.552212"
     y1="246.34291"
     x2="53.632149"
     y2="74.480186"
     gradientUnits="userSpaceOnUse" /><linearGradient
     inkscape:collect="always"
     xlink:href="#linearGradient6528"
     id="linearGradient6522"
     x1="39.552212"
     y1="246.34291"
     x2="53.632149"
     y2="74.480186"
     gradientUnits="userSpaceOnUse" /></defs><sodipodi:namedview
   id="namedview2166"
   pagecolor="#ffffff"
   bordercolor="#666666"
   borderopacity="1.0"
   inkscape:pageshadow="2"
   inkscape:pageopacity="1"
   inkscape:pagecheckerboard="true"
   showgrid="false"
   units="in"
   showborder="false"
   showguides="true"
   inkscape:guide-bbox="true"
   inkscape:zoom="0.5930858"
   inkscape:cx="880.14247"
   inkscape:cy="612.0531"
   inkscape:window-width="2560"
   inkscape:window-height="1371"
   inkscape:window-x="0"
   inkscape:window-y="0"
   inkscape:window-maximized="1"
   inkscape:current-layer="use1306"
   inkscape:document-units="in" />

<g
   inkscape:groupmode="layer"
   id="layer3"
   inkscape:label="Background"
   style="display:inline"
   transform="translate(201.06037,-6.9306059)"><path
     style="fill:none;stroke:#000000;stroke-width:13.3333;stroke-linecap:butt;stroke-linejoin:miter;stroke-miterlimit:4;stroke-dasharray:none;stroke-opacity:1"
     d="M 39.55221,66.289375 V 428.79701"
     id="path81683" /></g><circle
   style="fill:#ffffff;stroke:#f8f8f8;stroke-width:1.22435"
   id="path2214"
   cx="328.68289"
   cy="88.07032"
   r="239.96327"
   transform="rotate(30)" /><g
   id="use1290"
   inkscape:tile-x0="12.711587"
   inkscape:tile-y0="12.711603"
   transform="rotate(30,240.52471,240.66331)"><circle
     style="opacity:0.4;fill:#ffffff;stroke:#f8f8f8;stroke-width:1.15965"
     id="circle13201"
     cx="240.57544"
     cy="240.57545"
     r="227.28403" /><path
     style="fill:none;fill-opacity:1;stroke:#000000;stroke-width:13.3333;stroke-linecap:round;stroke-linejoin:miter;stroke-miterlimit:4;stroke-dasharray:none;stroke-dashoffset:0;stroke-opacity:1"
     d="M 240.57545,22.7116 V 59.32163"
     id="path13203" /></g><g
   id="use1292"
   inkscape:tile-x0="12.711587"
   inkscape:tile-y0="12.711603"
   transform="translate(0.03713346,0.0371395)"><circle
     style="opacity:0.4;fill:#ffffff;stroke:#f8f8f8;stroke-width:1.15965"
     id="circle13207"
     cx="240.57544"
     cy="240.57545"
     r="227.28403" /><path
     style="fill:none;fill-opacity:1;stroke:#000000;stroke-width:13.3333;stroke-linecap:round;stroke-linejoin:miter;stroke-miterlimit:4;stroke-dasharray:none;stroke-dashoffset:0;stroke-opacity:1"
     d="M 240.57545,22.7116 V 59.32163"
     id="path13209" /></g><g
   id="use1294"
   inkscape:tile-x0="12.711587"
   inkscape:tile-y0="12.711603"
   transform="rotate(-30,240.66332,240.52473)"><circle
     style="opacity:0.4;fill:#ffffff;stroke:#f8f8f8;stroke-width:1.15965"
     id="circle13213"
     cx="240.57544"
     cy="240.57545"
     r="227.28403" /><path
     style="fill:none;fill-opacity:1;stroke:#000000;stroke-width:13.3333;stroke-linecap:round;stroke-linejoin:miter;stroke-miterlimit:4;stroke-dasharray:none;stroke-dashoffset:0;stroke-opacity:1"
     d="M 240.57545,22.7116 V 59.32163"
     id="path13215" /></g><g
   id="use1296"
   inkscape:tile-x0="12.711587"
   inkscape:tile-y0="12.711603"
   transform="rotate(-60,240.62618,240.56187)"><circle
     style="opacity:0.4;fill:#ffffff;stroke:#f8f8f8;stroke-width:1.15965"
     id="circle13219"
     cx="240.57544"
     cy="240.57545"
     r="227.28403" /><path
     style="fill:none;fill-opacity:1;stroke:#000000;stroke-width:13.3333;stroke-linecap:round;stroke-linejoin:miter;stroke-miterlimit:4;stroke-dasharray:none;stroke-dashoffset:0;stroke-opacity:1"
     d="M 240.57545,22.7116 V 59.32163"
     id="path13221" /></g><g
   id="use1298"
   inkscape:tile-x0="12.711587"
   inkscape:tile-y0="12.711603"
   transform="rotate(-90,240.61258,240.57545)"><circle
     style="opacity:0.4;fill:#ffffff;stroke:#f8f8f8;stroke-width:1.15965"
     id="circle13225"
     cx="240.57544"
     cy="240.57545"
     r="227.28403" /><path
     style="fill:none;fill-opacity:1;stroke:#000000;stroke-width:13.3333;stroke-linecap:round;stroke-linejoin:miter;stroke-miterlimit:4;stroke-dasharray:none;stroke-dashoffset:0;stroke-opacity:1"
     d="M 240.57545,22.7116 V 59.32163"
     id="path13227" /></g><g
   id="use1300"
   inkscape:tile-x0="12.711587"
   inkscape:tile-y0="12.711603"
   transform="rotate(-120,240.60473,240.5833)"><circle
     style="opacity:0.4;fill:#ffffff;stroke:#f8f8f8;stroke-width:1.15965"
     id="circle13231"
     cx="240.57544"
     cy="240.57545"
     r="227.28403" /><path
     style="fill:none;fill-opacity:1;stroke:#000000;stroke-width:13.3333;stroke-linecap:round;stroke-linejoin:miter;stroke-miterlimit:4;stroke-dasharray:none;stroke-dashoffset:0;stroke-opacity:1"
     d="M 240.57545,22.7116 V 59.32163"
     id="path13233" /></g><g
   id="use1302"
   inkscape:tile-x0="12.711587"
   inkscape:tile-y0="12.711603"
   transform="rotate(-150,240.59899,240.58904)"><circle
     style="opacity:0.4;fill:#ffffff;stroke:#f8f8f8;stroke-width:1.15965"
     id="circle13237"
     cx="240.57544"
     cy="240.57545"
     r="227.28403" /><path
     style="fill:none;fill-opacity:1;stroke:#000000;stroke-width:13.3333;stroke-linecap:round;stroke-linejoin:miter;stroke-miterlimit:4;stroke-dasharray:none;stroke-dashoffset:0;stroke-opacity:1"
     d="M 240.57545,22.7116 V 59.32163"
     id="path13239" /></g><g
   id="use1304"
   inkscape:tile-x0="12.711587"
   inkscape:tile-y0="12.711603"
   transform="rotate(180,240.59402,240.59402)"><circle
     style="opacity:0.4;fill:#ffffff;stroke:#f8f8f8;stroke-width:1.15965"
     id="circle13243"
     cx="240.57544"
     cy="240.57545"
     r="227.28403" /><path
     style="fill:none;fill-opacity:1;stroke:#000000;stroke-width:13.3333;stroke-linecap:round;stroke-linejoin:miter;stroke-miterlimit:4;stroke-dasharray:none;stroke-dashoffset:0;stroke-opacity:1"
     d="M 240.57545,22.7116 V 59.32163"
     id="path13245" /></g><g
   id="use1306"
   inkscape:tile-x0="12.711587"
   inkscape:tile-y0="12.711603"
   transform="rotate(150,240.58904,240.599)"><circle
     style="opacity:0.4;fill:#ffffff;stroke:#f8f8f8;stroke-width:1.15965"
     id="circle13249"
     cx="240.57544"
     cy="240.57545"
     r="227.28403" /><path
     style="fill:none;fill-opacity:1;stroke:#000000;stroke-width:13.3333;stroke-linecap:round;stroke-linejoin:miter;stroke-miterlimit:4;stroke-dasharray:none;stroke-dashoffset:0;stroke-opacity:1"
     d="M 240.57545,22.7116 V 59.32163"
     id="path13251" /></g><g
   id="use1308"
   inkscape:tile-x0="12.711587"
   inkscape:tile-y0="12.711603"
   transform="rotate(120,240.5833,240.60474)"><circle
     style="opacity:0.4;fill:#ffffff;stroke:#ffffff;stroke-width:1.15965;stroke-opacity:1"
     id="circle13255"
     cx="240.57544"
     cy="240.57545"
     r="227.28403" /><path
     style="fill:none;fill-opacity:1;stroke:#000000;stroke-width:13.3333;stroke-linecap:round;stroke-linejoin:miter;stroke-miterlimit:4;stroke-dasharray:none;stroke-dashoffset:0;stroke-opacity:1"
     d="M 240.57545,22.7116 V 59.32163"
     id="path13257" /></g><g
   inkscape:groupmode="layer"
   id="layer2"
   inkscape:label="Lower"
   style="display:inline"
   transform="translate(201.06037,-6.9306059)"><circle
     style="opacity:0.4;fill:#ffffff;stroke:#ffffff;stroke-width:1.15965;stroke-opacity:1"
     id="circle68244"
     cx="234.15479"
     cy="89.518379"
     r="227.28403"
     transform="rotate(60)" /><path
     style="fill:url(#linearGradient6522);fill-opacity:1;stroke:#000000;stroke-width:13.3333;stroke-linecap:round;stroke-linejoin:round;stroke-miterlimit:4;stroke-dasharray:none;stroke-opacity:1;paint-order:stroke fill markers"
     d="M 53.444209,142.90977 39.55221,246.34291"
     id="path81867"
     sodipodi:nodetypes="cc" /><path
     style="fill:url(#linearGradient6520);fill-opacity:1;stroke:#000000;stroke-width:13.3333;stroke-linecap:round;stroke-linejoin:round;stroke-miterlimit:4;stroke-dasharray:none;stroke-opacity:1"
     d="m 39.55221,246.34291 130.0698,76.08458"
     sodipodi:nodetypes="cc"
     id="path7533" /><g
     id="use1310"
     inkscape:tile-x0="12.711587"
     inkscape:tile-y0="12.711603"
     transform="rotate(90,136.57996,143.5477)"><circle
       style="opacity:0.4;fill:#ffffff;stroke:#ffffff;stroke-width:1.15965;stroke-opacity:1"
       id="circle13261"
       cx="240.57544"
       cy="240.57545"
       r="227.28403" /><path
       style="fill:none;fill-opacity:1;stroke:#000000;stroke-width:13.3333;stroke-linecap:round;stroke-linejoin:miter;stroke-miterlimit:4;stroke-dasharray:none;stroke-dashoffset:0;stroke-opacity:1"
       d="M 240.57545,22.7116 V 59.32163"
       id="path13263" /></g><circle
     style="opacity:0.4;fill:#ffffff;stroke:#ffffff;stroke-width:1.15965;stroke-opacity:1"
     id="circle13267"
     cx="234.15479"
     cy="89.518379"
     r="227.28403"
     transform="rotate(60)" /><path
     style="fill:none;fill-opacity:1;stroke:#000000;stroke-width:13.3333;stroke-linecap:round;stroke-linejoin:miter;stroke-miterlimit:4;stroke-dasharray:none;stroke-dashoffset:0;stroke-opacity:1"
     d="m 228.22784,138.61127 -31.70522,18.30501"
     id="path13269" /></g><g
   inkscape:groupmode="layer"
   id="layer4"
   inkscape:label="Handles"
   transform="translate(201.06037,-6.9306059)" /><g
   inkscape:groupmode="layer"
   id="layer1"
   inkscape:label="Upper"
   style="display:inline"
   transform="translate(201.06037,-6.9306059)"><g
     aria-label="Vertretungen"
     id="text2453"
     style="font-weight:bold;font-size:66.6667px;line-height:0;font-family:Lexend;-inkscape-font-specification:'Lexend, Bold';letter-spacing:-1px;word-spacing:0px"><path
       d="m -136.04895,260.4547 -45.52158,21.30753 -0.70603,-12.31311 22.52891,-10.03949 q 2.6716,-1.15483 4.49705,-1.92726 1.82544,-0.77244 3.59196,-1.40794 -1.89414,-0.4256 -3.72554,-0.92157 -1.90177,-0.55872 -4.69168,-1.46716 l -23.50972,-7.06576 -0.69077,-12.04689 47.66257,16.03115 z"
       style="font-size:66.6667px"
       id="path81383" /><path
       d="m -132.89495,215.36077 q -1.0186,5.84525 -4.07265,9.77936 -3.10829,3.85699 -7.59227,5.51178 -4.48399,1.65479 -9.67247,0.75065 -5.38551,-0.93848 -9.05691,-3.94676 -3.73708,-3.01972 -5.40332,-7.43803 -1.66623,-4.41831 -0.77353,-9.54111 0.85836,-4.92577 3.82086,-8.33447 2.96249,-3.40869 7.33502,-4.81222 4.37253,-1.40353 9.48389,-0.44515 l 2.81267,0.55781 -4.10871,23.57803 q 2.9729,-0.36167 5.03828,-2.5056 2.07683,-2.2096 2.75207,-6.08454 0.37768,-2.16734 0.0727,-3.91227 -0.3592,-1.82205 -1.53787,-3.98992 l 8.25997,-3.90665 q 2.12051,3.75309 2.69612,7.43997 0.5756,3.68689 -0.0539,7.29912 z m -27.34204,-3.47886 q -1.04149,5.9766 4.11513,8.22862 l 2.35764,-13.52946 -0.0657,-0.0114 q -2.32158,-0.26922 -4.14116,1.24083 -1.80814,1.44437 -2.26593,4.07145 z"
       style="font-size:66.6667px"
       id="path81385" /><path
       d="m -128.75681,194.63458 -33.06522,-12.82875 3.85827,-9.94443 4.9824,1.71857 q -1.83502,-2.64269 -2.40015,-5.79381 -0.54103,-3.21326 0.59234,-6.13444 0.40994,-1.05659 0.98223,-1.97869 0.57228,-0.92211 1.13438,-1.63363 l 10.5133,7.36837 q -0.63818,0.539 -1.40711,1.59933 -0.83109,1.03621 -1.3616,2.40357 -1.01279,2.61042 0.0764,4.96373 1.1133,2.29117 3.91017,3.37631 l 16.284,6.31792 z"
       style="font-size:66.6667px"
       id="path81387" /><path
       d="m -115.2783,163.58718 -22.12755,-13.00578 -3.10787,5.28762 -8.4487,-4.96584 3.10787,-5.28762 -7.70153,-4.52669 5.74281,-9.7706 7.70154,4.52669 3.34434,-5.68994 8.4487,4.96584 -3.34435,5.68994 22.12755,13.00578 z"
       style="font-size:66.6667px"
       id="path81389" /><path
       d="m -103.11274,143.96899 -27.4826,-22.41858 6.74244,-8.26545 4.20748,3.1741 q -0.92858,-3.0804 -0.4923,-6.25192 0.47841,-3.22319 2.459,-5.65116 0.71638,-0.8782 1.5456,-1.57833 0.82922,-0.70012 1.58368,-1.20313 l 7.72179,10.25654 q -0.7735,0.3154 -1.83246,1.08622 -1.11062,0.72868 -2.0377,1.86518 -1.76989,2.16968 -1.46122,4.7444 0.3508,2.52306 2.67546,4.41937 l 13.534659,11.04073 z"
       style="font-size:66.6667px"
       id="path81391" /><path
       d="m -71.452604,111.75449 q -4.545139,3.81395 -9.415558,4.85485 -4.862204,0.94699 -9.357594,-0.67657 -4.49539,-1.62356 -7.880805,-5.658 -3.513979,-4.18766 -4.383469,-8.8538 -0.91235,-4.717216 0.66014,-9.169753 1.57249,-4.452537 5.555869,-7.795098 3.830173,-3.214001 8.29204,-3.912081 4.461868,-0.69808 8.710129,1.045821 4.248261,1.7439 7.539753,5.770133 l 1.791625,2.238819 -18.333761,15.384349 q 2.50659,1.63887 5.467476,1.33003 3.011954,-0.35171 6.025024,-2.88006 1.685276,-1.41416 2.57632,-2.94511 0.89926,-1.624876 1.394633,-4.04221 l 8.834024,2.334311 q -0.796462,4.236499 -2.731757,7.426959 -1.935296,3.19047 -4.744089,5.54741 z M -90.121346,91.477215 q -4.647277,3.899655 -2.154682,8.944375 l 10.520209,-8.827787 -0.04285,-0.05107 q -1.602005,-1.701707 -3.966494,-1.719253 -2.31342,-0.0604 -4.356179,1.653734 z"
       style="font-size:66.6667px"
       id="path81393" /><path
       d="m -52.544745,97.381491 -12.666774,-22.323335 -5.334408,3.026865 -4.836404,-8.523455 5.334407,-3.026866 -4.408695,-7.76968 9.857057,-5.593121 4.408695,7.76968 5.740287,-3.257171 4.836404,8.523456 -5.740286,3.25717 12.666774,22.323336 z"
       style="font-size:66.6667px"
       id="path81395" /><path
       d="m -20.75913,82.877164 q -5.564648,1.858092 -9.908802,-0.627313 -4.302034,-2.569755 -6.455732,-9.019688 l -6.925616,-20.740961 10.749888,-3.589496 6.503323,19.476268 q 0.95016,2.845559 2.805955,3.983016 1.919029,1.116343 4.448415,0.271756 2.46615,-0.823473 3.540264,-2.868971 1.074113,-2.045499 0.29287,-4.38518 l -6.71447,-20.108615 10.749889,-3.589496 11.23301178,33.640827 -10.05430678,3.357235 -1.709743,-4.067913 q -0.905086,2.762194 -3.180767,4.998053 -2.275681,2.235859 -5.374179,3.270478 z"
       style="font-size:66.6667px"
       id="path81397" /><path
       d="M 8.0554116,73.585759 5.0236117,38.248895 15.584817,37.342774 l 0.619021,4.095411 q 1.671772,-2.351517 4.347547,-3.919323 2.742198,-1.573505 5.864064,-1.841352 5.978041,-0.512898 9.419043,2.938925 3.501727,3.379701 4.100108,10.354082 L 41.798132,70.690732 30.506276,71.659541 28.72253,50.869243 q -0.512899,-5.978041 -5.616047,-5.406383 -2.656907,0.227955 -4.247124,1.97027 -1.590217,1.742315 -1.390756,4.067109 l 1.812241,21.122411 z"
       style="font-size:66.6667px"
       id="path81399" /><path
       d="M 63.527923,88.616453 Q 59.117075,87.912497 54.97169,85.96821 50.892139,84.03443 48.518674,81.562811 l 5.113476,-7.082623 q 1.886031,1.718722 4.327457,2.91849 2.496754,1.276109 5.459264,1.748915 4.871682,0.777504 7.522581,-1.027265 2.640392,-1.738935 3.354855,-6.215616 l 0.241657,-1.514172 q -2.06119,1.493822 -4.928474,2.11638 -2.801451,0.633064 -5.763961,0.160258 -4.740015,-0.756491 -8.079969,-3.517379 -3.339955,-2.760888 -4.89256,-6.991792 -1.486772,-4.220398 -0.667241,-9.355414 0.840545,-5.266684 3.588134,-8.946313 2.758096,-3.745462 6.746679,-5.471762 3.99909,-1.792133 8.673272,-1.04615 3.357511,0.535848 5.988725,2.238478 2.64172,1.636796 4.114528,3.829653 l 0.775375,-3.589325 10.533368,1.68109 -5.116816,32.060938 q -1.376392,8.624195 -7.267899,12.544679 -5.825673,3.930992 -14.713202,2.512572 z m 4.164152,-23.976711 q 3.620846,0.577875 6.095258,-1.390082 2.484918,-2.03379 3.13634,-6.11547 0.640916,-4.015846 -1.087513,-6.722072 -1.728428,-2.706225 -5.349273,-3.2841 -3.620846,-0.577874 -6.105764,1.455916 -2.484919,2.033789 -3.125834,6.049636 -0.640916,4.015846 1.087513,6.722072 1.728428,2.706226 5.349273,3.2841 z"
       style="font-size:66.6667px"
       id="path81401" /><path
       d="m 108.3483,86.222914 q -5.48414,-2.264682 -8.660415,-6.100789 -3.089213,-3.872282 -3.729871,-8.608739 -0.640657,-4.736457 1.369566,-9.604394 2.086561,-5.052796 5.82088,-7.982597 3.75977,-2.991421 8.43461,-3.657524 4.67484,-0.666103 9.48116,1.318674 4.62146,1.90844 7.30478,5.54098 2.68332,3.632541 3.10295,8.205596 0.41962,4.573054 -1.62677,9.353926 l -1.15579,2.62419 -22.12139,-9.135063 q -0.29312,2.980433 1.35066,5.462416 1.70539,2.507429 5.34094,4.008735 2.03344,0.839713 3.80294,0.921285 1.85656,0.0454 4.22878,-0.63392 l 2.018,8.911602 q -4.12425,1.254105 -7.84811,1.014624 -3.72385,-0.23948 -7.11292,-1.639002 z m 9.33837,-25.932307 q -5.60737,-2.315573 -8.92632,2.228305 l 12.6936,5.241847 0.0254,-0.06162 q 0.76737,-2.207572 -0.3111,-4.311858 -1.01686,-2.07884 -3.48163,-3.096674 z"
       style="font-size:66.6667px"
       id="path81403" /><path
       d="m 127.92236,94.411101 20.53651,-28.916046 8.6422,6.13779 -2.17594,3.524325 q 2.79578,-0.712796 5.85067,-0.178562 3.10925,0.572836 5.66386,2.387151 4.89182,3.474221 5.28469,8.332331 0.48583,4.842359 -3.56743,10.549473 l -12.623,17.773587 -9.24009,-6.56242 12.08257,-17.012636 q 3.47422,-4.891812 -0.7882,-7.755494 -2.17414,-1.544098 -4.51379,-1.243279 -2.33965,0.30082 -3.69073,2.203191 L 137.1081,100.93492 Z"
       style="font-size:66.6667px"
       id="path81405" /></g></g></svg>
