<?xml version="1.0" encoding="UTF-8" standalone="no"?>
<!-- Generator: Adobe Illustrator 21.1.0, SVG Export Plug-In . SVG Version: 6.00 Build 0)  -->

<svg
   version="1.1"
   id="Ebene_1"
   x="0px"
   y="0px"
   viewBox="0 0 481.15091 481.15091"
   xml:space="preserve"
   sodipodi:docname="footer_icon_mensamax.svg"
   width="5.0119886in"
   height="5.0119886in"
   inkscape:version="1.1 (c68e22c387, 2021-05-23)"
   xmlns:inkscape="http://www.inkscape.org/namespaces/inkscape"
   xmlns:sodipodi="http://sodipodi.sourceforge.net/DTD/sodipodi-0.dtd"
   xmlns="http://www.w3.org/2000/svg"
   xmlns:svg="http://www.w3.org/2000/svg"><defs
   id="defs2168" /><sodipodi:namedview
   id="namedview2166"
   pagecolor="#ffffff"
   bordercolor="#666666"
   borderopacity="1.0"
   inkscape:pageshadow="2"
   inkscape:pageopacity="1"
   inkscape:pagecheckerboard="true"
   showgrid="false"
   units="in"
   showborder="false"
   showguides="true"
   inkscape:guide-bbox="true"
   inkscape:zoom="1.6775"
   inkscape:cx="310.58123"
   inkscape:cy="279.58272"
   inkscape:window-width="2560"
   inkscape:window-height="1371"
   inkscape:window-x="0"
   inkscape:window-y="0"
   inkscape:window-maximized="1"
   inkscape:current-layer="Ebene_1"
   inkscape:document-units="in"><sodipodi:guide
     position="134.25545,256.26776"
     orientation="1,0"
     id="guide11" /></sodipodi:namedview>
<circle
   style="fill:#ffffff;stroke:#f8f8f8;stroke-width:1.22435"
   id="path2214"
   cx="240.57544"
   cy="240.57544"
   r="239.96327" />
<g
   id="g73"><g
     aria-label="M"
     transform="scale(1.0277048,0.97304206)"
     id="text33667"
     style="font-weight:500;font-size:309.681px;line-height:1.25;font-family:Lexend;-inkscape-font-specification:'Lexend, Medium';stroke-width:5.99223"><path
       d="m 130.65657,340.52365 v -216.7767 h 32.82618 l 70.91695,115.51101 72.15568,-115.51101 h 30.9681 v 216.7767 H 304.07793 V 251.6452 q 0,-20.74862 0.61936,-38.09076 0.92904,-17.34213 2.47745,-33.75523 l -63.48461,98.47856 h -20.43894 l -62.24588,-98.16888 q 1.5484,15.48405 2.16776,32.82619 0.92905,17.03245 0.92905,38.71012 v 88.87845 z"
       id="path123" /></g><g
     aria-label="MensaMax"
     id="text61032"
     style="font-weight:500;font-size:41.6496px;font-family:Lexend;-inkscape-font-specification:'Lexend, Medium';stroke-width:1.04124"><path
       style="color:#000000;-inkscape-font-specification:'Lexend, Medium';fill:#000000;-inkscape-stroke:none"
       d="m 134.36952,374.31348 v -29.15472 h 4.41486 l 9.53775,15.5353 9.70436,-15.5353 h 4.16496 v 29.15472 h -4.49816 v -11.95344 q 0,-2.79052 0.0833,-5.1229 0.12495,-2.33238 0.3332,-4.53981 l -8.53817,13.24458 h -2.74887 l -8.37157,-13.20293 q 0.20825,2.08248 0.29155,4.41486 0.12494,2.29073 0.12494,5.2062 v 11.95344 z"
       id="path11" /><path
       style="color:#000000;-inkscape-font-specification:'Lexend, Medium';fill:#000000;-inkscape-stroke:none"
       d="m 179.47597,374.72997 q -3.37362,0 -5.99754,-1.41608 -2.58228,-1.45774 -4.08167,-3.95672 -1.45773,-2.49897 -1.45773,-5.74764 0,-3.45692 1.41609,-6.03919 1.45773,-2.62393 3.95671,-4.08166 2.54062,-1.49939 5.78929,-1.54104 2.83217,0.0417 5.08125,1.41609 2.29073,1.37443 3.58187,3.74846 1.33279,2.37403 1.24949,5.4561 l -0.0417,1.83258 h -16.74314 q 0.37484,2.95712 2.41567,4.70641 2.08248,1.70763 5.24785,1.70763 1.62434,0 2.99878,-0.54144 1.41608,-0.54145 3.04042,-1.95754 l 2.16578,3.04042 q -1.54104,1.49939 -3.91507,2.45733 -2.37402,0.91629 -4.7064,0.91629 z m -0.37485,-18.82562 q -5.62269,0 -6.70558,5.08125 h 12.24498 v -0.29154 q -0.12495,-1.37444 -0.91629,-2.45733 -0.79135,-1.08289 -1.99918,-1.70763 -1.20784,-0.62475 -2.62393,-0.62475 z"
       id="path13" /><path
       style="color:#000000;-inkscape-font-specification:'Lexend, Medium';fill:#000000;-inkscape-stroke:none"
       d="m 193.67842,374.31348 v -21.86604 h 4.28991 v 3.41526 q 1.08289,-1.62433 3.04042,-2.74887 1.99918,-1.12454 4.12331,-1.12454 7.49693,0 7.49693,8.99631 v 13.32788 h -4.28991 v -13.03633 q 0,-5.62269 -4.62311,-5.3728 -1.62433,0 -2.95712,0.70805 -1.29113,0.66639 -2.04083,1.83258 -0.74969,1.16619 -0.74969,2.62392 v 13.24458 z"
       id="path15" /><path
       style="color:#000000;-inkscape-font-specification:'Lexend, Medium';fill:#000000;-inkscape-stroke:none"
       d="m 225.74859,374.72997 q -2.74888,0 -4.95631,-0.95794 -2.20742,-0.95794 -3.66516,-2.83217 l 2.91547,-2.49898 q 1.24949,1.45774 2.70723,2.12413 1.49938,0.62475 3.37361,0.62475 1.54104,0 2.49898,-0.7497 0.99959,-0.74969 0.99959,-2.04083 0,-1.08289 -0.79134,-1.74928 -0.79134,-0.62474 -3.62352,-1.37444 -2.41567,-0.62474 -3.95671,-1.41608 -1.54103,-0.79135 -2.37403,-1.79094 -1.20784,-1.49938 -1.20784,-3.79011 0,-1.83258 1.04124,-3.24867 1.04124,-1.41609 2.79053,-2.20743 1.79093,-0.83299 3.99836,-0.83299 2.33238,0 4.49816,0.95794 2.20743,0.91629 3.54021,2.54063 l -2.45732,2.70722 q -1.20784,-1.20784 -2.70723,-1.91588 -1.45773,-0.74969 -2.66557,-0.74969 -1.79094,0 -2.79053,0.66639 -0.95794,0.66639 -0.95794,1.95753 0.0417,1.12454 0.91629,1.83258 0.87465,0.70805 3.70682,1.41609 2.08248,0.54145 3.41527,1.20784 1.37443,0.62474 2.16578,1.45773 0.83299,0.79135 1.16618,1.83259 0.3332,1.04124 0.3332,2.33237 0,1.87424 -1.08289,3.37362 -1.04124,1.45774 -2.83217,2.29073 -1.79093,0.83299 -3.99836,0.83299 z"
       id="path17" /><path
       style="color:#000000;-inkscape-font-specification:'Lexend, Medium';fill:#000000;-inkscape-stroke:none"
       d="m 246.82321,374.72997 q -2.70723,0 -4.95631,-1.49938 -2.20742,-1.49939 -3.54021,-4.08166 -1.33279,-2.58228 -1.33279,-5.83095 0,-3.29032 1.33279,-5.83094 1.37444,-2.58228 3.66516,-4.04001 2.33238,-1.45774 5.2062,-1.45774 2.45733,0 4.33156,1.08289 1.91588,1.04124 2.91547,2.70722 v -3.33196 h 4.33156 v 21.86604 h -4.33156 v -3.37362 q -1.12453,1.58268 -3.20701,2.70722 -2.04084,1.08289 -4.41486,1.08289 z m 1.12454,-3.95671 q 1.95753,0 3.45691,-0.95794 1.49939,-0.95794 2.33238,-2.62393 0.87464,-1.70763 0.87464,-3.87341 0,-2.12413 -0.87464,-3.79011 -0.83299,-1.66599 -2.33238,-2.62393 -1.49938,-0.95794 -3.45691,-0.95794 -1.91589,0 -3.41527,0.95794 -1.45774,0.95794 -2.33238,2.62393 -0.83299,1.66598 -0.83299,3.79011 0,2.16578 0.83299,3.87341 0.87464,1.66599 2.33238,2.62393 1.49938,0.95794 3.41527,0.95794 z"
       id="path19" /><path
       style="color:#000000;-inkscape-font-specification:'Lexend, Medium';fill:#000000;-inkscape-stroke:none"
       d="m 265.85705,374.31348 v -29.15472 h 4.41486 l 9.53776,15.5353 9.70435,-15.5353 h 4.16496 v 29.15472 h -4.49815 v -11.95344 q 0,-2.79052 0.0833,-5.1229 0.12495,-2.33238 0.33319,-4.53981 l -8.53816,13.24458 h -2.74888 l -8.37157,-13.20293 q 0.20825,2.08248 0.29155,4.41486 0.12495,2.29073 0.12495,5.2062 v 11.95344 z"
       id="path21" /><path
       style="color:#000000;-inkscape-font-specification:'Lexend, Medium';fill:#000000;-inkscape-stroke:none"
       d="m 309.17257,374.72997 q -2.70723,0 -4.95631,-1.49938 -2.20743,-1.49939 -3.54021,-4.08166 -1.33279,-2.58228 -1.33279,-5.83095 0,-3.29032 1.33279,-5.83094 1.37443,-2.58228 3.66516,-4.04001 2.33238,-1.45774 5.2062,-1.45774 2.45733,0 4.33156,1.08289 1.91588,1.04124 2.91547,2.70722 v -3.33196 h 4.33156 v 21.86604 h -4.33156 v -3.37362 q -1.12454,1.58268 -3.20702,2.70722 -2.04083,1.08289 -4.41485,1.08289 z m 1.12453,-3.95671 q 1.95754,0 3.45692,-0.95794 1.49939,-0.95794 2.33238,-2.62393 0.87464,-1.70763 0.87464,-3.87341 0,-2.12413 -0.87464,-3.79011 -0.83299,-1.66599 -2.33238,-2.62393 -1.49938,-0.95794 -3.45692,-0.95794 -1.91588,0 -3.41526,0.95794 -1.45774,0.95794 -2.33238,2.62393 -0.83299,1.66598 -0.83299,3.79011 0,2.16578 0.83299,3.87341 0.87464,1.66599 2.33238,2.62393 1.49938,0.95794 3.41526,0.95794 z"
       id="path23" /><path
       style="color:#000000;-inkscape-font-specification:'Lexend, Medium';fill:#000000;-inkscape-stroke:none"
       d="m 324.79115,374.31348 8.41322,-10.95385 -8.45487,-10.91219 h 5.41445 l 5.91424,7.70517 4.99795,-7.70517 h 5.08125 l -7.70517,10.78724 8.45487,11.0788 h -5.24785 l -5.99754,-7.78848 -5.7893,7.78848 z"
       id="path25" /></g></g></svg>
