<?xml version="1.0" encoding="UTF-8" standalone="no"?>
<!-- Generator: Adobe Illustrator 21.1.0, SVG Export Plug-In . SVG Version: 6.00 Build 0)  -->

<svg
   version="1.1"
   id="Ebene_1"
   x="0px"
   y="0px"
   viewBox="0 0 481.15091 481.15091"
   xml:space="preserve"
   sodipodi:docname="footer_icon_iserv.svg"
   width="5.0119886in"
   height="5.0119886in"
   inkscape:version="1.1 (c68e22c387, 2021-05-23)"
   xmlns:inkscape="http://www.inkscape.org/namespaces/inkscape"
   xmlns:sodipodi="http://sodipodi.sourceforge.net/DTD/sodipodi-0.dtd"
   xmlns="http://www.w3.org/2000/svg"
   xmlns:svg="http://www.w3.org/2000/svg"><defs
   id="defs2168" /><sodipodi:namedview
   id="namedview2166"
   pagecolor="#ffffff"
   bordercolor="#666666"
   borderopacity="1.0"
   inkscape:pageshadow="2"
   inkscape:pageopacity="1"
   inkscape:pagecheckerboard="true"
   showgrid="false"
   units="in"
   showborder="false"
   showguides="true"
   inkscape:guide-bbox="true"
   inkscape:zoom="1.1861716"
   inkscape:cx="79.246544"
   inkscape:cy="304.34045"
   inkscape:window-width="2560"
   inkscape:window-height="1371"
   inkscape:window-x="0"
   inkscape:window-y="0"
   inkscape:window-maximized="1"
   inkscape:current-layer="Ebene_1"
   inkscape:document-units="in" />
<circle
   style="fill:#ffffff;stroke:#f8f8f8;stroke-width:1.22435"
   id="path2214"
   cx="240.57544"
   cy="240.57544"
   r="239.96327" /><g
   id="g2163"
   transform="translate(40.225447,176.47545)">
	<path
   fill="#00447c"
   d="m 341.8,23.9 c 6.7,19.3 13.8,38.5 20.5,57.9 h 16 l 20.2,-57.9 h -14.4 c -4.2,13.8 -8.6,28.6 -12.7,42.3 h -2.5 L 356,23.9 Z m -4.5,-2.5 c -9.1,0.7 -17.7,7.8 -17.7,7.8 l -3.8,-6.3 c -3.1,0.3 -5.9,0.9 -9.2,1.2 v 57.7 h 13.8 V 36.3 c 0,0 9.7,-2.3 15.2,-2.3 z M 272,31.7 c 5.4,0 10.4,4.8 10.4,15.8 h -22.6 c 0.1,-15.3 7.1,-15.8 12.2,-15.8 m -0.4,-8.8 c -15.2,0 -25.8,10.5 -25.8,30 0,19.5 11,30.6 25,30.3 14.1,-0.3 22.3,-5 22.3,-5 l -1,-7.2 c -2.1,0.6 -9.5,2.5 -16.7,2.5 -9.2,0 -15.8,-6.9 -15.8,-18.9 l 35,0.7 c 0.1,-0.4 0.9,-1.6 1,-1.9 0.1,-1.3 0.3,-2.8 0.3,-4.2 0,-17.5 -9.1,-26.3 -24.3,-26.3 m -81.8,57.2 c 1.2,0.4 7.8,3.1 18.5,3.1 16.7,0 29.9,-7.6 29.9,-25.1 0,-25.3 -36.8,-20.7 -36.8,-36.5 0,-6.6 4.8,-9.8 14.6,-9.8 7.9,0 15.4,1.5 15.4,1.5 0.3,-3.1 0.6,-6.3 1.2,-9.7 -1.2,-0.3 -7.5,-2.2 -17.4,-2.2 -14.5,0 -27.5,5 -27.5,23 0,24.3 36.5,20.4 36.5,36.3 0,9.4 -11,11 -17.4,11 -6.3,0 -17,-2.9 -17,-2.9 z m -15.1,-5.8 c -2.3,-0.1 -5.1,-0.6 -7.5,-0.7 V 11.1 l 7.5,-0.7 V 2.6 h -29.3 v 7.8 c 2.5,0.1 5.3,0.6 7.5,0.7 v 62.4 l -7.5,0.7 v 7.5 h 29.3 z"
   id="path2153" />
	<path
   fill="#00447c"
   d="m 91.2,113.4 c 0,7.2 6.1,13.3 14,13.3 7.2,0 13.5,-6.1 13.5,-13.3 0,-7.4 -6.3,-13.5 -13.5,-13.5 -7.9,0 -14,6.1 -14,13.5"
   id="path2155" />
	<path
   fill="#7295c8"
   d="m 46.7,113.4 c 0,7.2 6.1,13.3 14,13.3 7.2,0 13.5,-6.1 13.5,-13.3 0,-7.4 -6.3,-13.5 -13.5,-13.5 -7.9,0 -14,6.1 -14,13.5"
   id="path2157" />
	<path
   fill="#fab900"
   d="m 2.2,113.4 c 0,7.2 6.1,13.3 14,13.3 7.2,0 13.5,-6.1 13.5,-13.3 0,-7.4 -6.3,-13.5 -13.5,-13.5 -7.9,0 -14,6.1 -14,13.5"
   id="path2159" />
	<path
   fill="#00447c"
   d="m 394.9,113.4 c 0,-7.3 -6.2,-13.3 -13.2,-13.5 v 0 H 149.3 v 0 c -7.7,0.2 -13.6,6.2 -13.6,13.5 0,7.1 5.9,13.1 13.6,13.3 v 0.1 h 232.3 v -0.1 c 7.1,-0.1 13.3,-6.2 13.3,-13.3"
   id="path2161" />
</g>
</svg>
