<svg version="1.1" viewBox="0 0 2070.2 836" xml:space="preserve" xmlns="http://www.w3.org/2000/svg"><g fill="#fff" stroke-width="5.173">
<rect x="30.297" y="450.61" width="305.4" height="329.68"/><rect x="29.194" y="48.451" width="305.4" height="329.68"/><rect x="425.7" y="39.952" width="305.4" height="329.68"/><rect x="420.69" y="450" width="305.4" height="329.68"/></g><g transform="translate(-408.58 2.8945)">
	<path d="m410.7 5.2c29.9 127.1 14.8 264.2-2.6 400.9 96.7-23.9 211.9-31.6 367.5-9.5-10.6-111-24.1-219.7-1.5-390.3-105.1 33.8-229.5 22.9-363.4-1.1zm206 52.6c25.4 0 54.4 3.8 87.2 12.2v47.3c-239.4-103.4-219.8 245.9-59.3 199.8v-94.2h59.6v124c-182.8 48.1-244-34.5-242-144.1 1.3-74.1 44.5-145 154.5-145z" fill="#4074BA"/>
	<path d="m802.6-2.9c29.9 127.1 17.8 262.7 0.4 399.3 96.7-23.9 209.8-34.9 365.5-12.8-10.6-111-25.3-215.2 0.3-385.8-105.1 33.8-232.3 23.3-366.2-0.7zm178.6 43.3c2.5 0 5 0 7.6 0.1 81.6 3.8 136.4 69.3 140.1 150.8s-42.3 163.5-143.9 161.7-146.2-82.6-142.3-161.5c3.7-76.4 60.7-150 138.5-151.1zm7.6 43.8c-50.9 0.5-83.8 42.2-84 113.2-0.2 61.8 36.2 111.9 80.9 111.9s80.7-42.7 80.9-111.9c0.2-61.8-27.4-113.7-77.8-113.2z" fill="#72B62F"/>
	<path d="m1167.4 415.6c-112.1 19.2-227.3 25.3-365.1 9.8 19.9 125.2 14.7 264.1-2.3 399.4 5.1-1.2 10.2-2.5 15.4-3.6-5.2 1.2-10.3 2.4-15.4 3.6-0.2 1.4-0.3 2.9-0.5 4.3 96.7-23.9 209.8-34.9 365.5-12.8l-0.6-6.3c-4.7-0.6-9.3-1.2-13.9-1.7 4.6 0.6 9.3 1.1 13.9 1.7-10.4-109.3-22.1-227 3-394.4zm-154 40.2c26.7 0 57.2 4 91.7 12.8v49.8c-251.8-108.8-231.2 258.7-62.4 210.2v-99.1h62.7v130.4c-192.3 50.6-256.6-36.3-254.6-151.6 1.4-77.9 46.8-152.5 162.6-152.5zm0.5 343.8h8.7c5.6 0.1 11.2 0.1 16.9 0.3-5.7-0.1-11.3-0.2-16.9-0.3h-21.1 12.4z" fill="#8ACED0"/>
	<path d="m781.3 412.9c-112.1 19.2-227.3 16.4-365.1 0.9 20.1 126.5 14.6 267.1-2.8 403.7 96.7-23.9 211.8-40.1 367.5-18-10.5-111-25.2-215.9 0.4-386.6zm-188.5 46c2.5 0 5 0 7.6 0.1 81.6 3.8 136.4 69.3 140.1 150.8s-42.3 163.5-143.9 161.7-146.2-82.6-142.3-161.5c3.8-76.4 60.8-150.1 138.5-151.1zm7.7 43.8c-50.9 0.5-83.8 42.2-84 113.2-0.2 61.8 36.2 111.9 80.9 111.9s80.7-42.7 80.9-111.9c0.1-61.9-27.4-113.7-77.8-113.2z" fill="#15692F"/>
</g>
<rect x="890.7" width="1372.3" height="836.1" fill="none"/>
<g fill="#016930">
	<path d="m1031.3 156.2c-9.9 3.7-29.2 8.7-49.9 8.7-26.2 0-46-6.7-60.7-20.7-13.8-13.1-21.8-33.6-21.6-57 0-49 35-80.5 86.2-80.5 19.1 0 34 3.9 41.2 7.4l-6.2 22.8c-8.5-3.7-18.9-6.7-35.2-6.7-33.1 0-56.3 19.5-56.3 55.7 0 35.2 21.6 56.1 53.8 56.1 10.1 0 17.7-1.4 21.4-3.2v-38.8h-27.4v-22.3h54.7v78.5z"/>
	<path d="m1073.1 51.3 20.2 60c2.3 6.9 4.6 15.4 6.2 21.8h0.7c1.8-6.4 3.9-14.7 6-22.1l17.5-59.8h30.4l-28.1 76.4c-15.4 41.9-25.8 60.5-39.1 72-11 9.9-22.5 13.6-29.7 14.5l-6.4-23.9c4.8-1.1 10.8-3.7 16.6-7.8 5.3-3.5 11.5-10.1 15.4-17.7 1.1-2.1 1.8-3.7 1.8-5.1 0-1.2-0.2-2.8-1.6-5.5l-40.9-102.8h31z"/>
	<path d="m1167.4 84.6c0-12.9-0.2-23.7-0.9-33.3h24.4l1.2 16.6h0.7c5.5-8.7 15.6-19.1 34.5-19.1 14.7 0 26.2 8.3 31 20.7h0.5c3.9-6.2 8.5-10.8 13.8-14 6.2-4.4 13.3-6.7 22.5-6.7 18.6 0 37.5 12.7 37.5 48.5v66h-27.6v-61.9c0-18.6-6.4-29.7-20-29.7-9.7 0-16.8 6.9-19.8 14.9-0.7 2.8-1.4 6.2-1.4 9.4v67.2h-27.6v-64.8c0-15.6-6.2-26.7-19.3-26.7-10.6 0-17.7 8.3-20.2 16.1-1.1 2.8-1.6 6-1.6 9.2v66.2h-27.6v-78.6z"/>
	<path d="m1359.5 84.6c0-12.9-0.2-23.7-0.9-33.3h24.8l1.4 16.8h0.7c4.8-8.7 17-19.3 35.6-19.3 19.5 0 39.8 12.7 39.8 48.1v66.5h-28.3v-63.4c0-16.1-6-28.3-21.4-28.3-11.3 0-19.1 8-22.1 16.6-0.9 2.5-1.1 6-1.1 9.2v65.8h-28.5v-78.7z"/>
	<path d="m1551.1 163.3-1.8-12.4h-0.7c-6.9 8.7-18.6 15-33.1 15-22.5 0-35.2-16.3-35.2-33.3 0-28.3 25.1-42.5 66.5-42.3v-1.8c0-7.4-3-19.5-22.8-19.5-11 0-22.5 3.5-30.1 8.3l-5.5-18.4c8.3-5.1 22.8-9.9 40.5-9.9 35.9 0 46.2 22.8 46.2 47.1v40.5c0 10.1 0.5 20 1.6 26.9h-25.6zm-3.7-54.7c-20-0.5-39.1 3.9-39.1 20.9 0 11 7.1 16.1 16.1 16.1 11.3 0 19.5-7.4 22.1-15.4 0.7-2.1 0.9-4.4 0.9-6.2v-15.4z"/>
	<path d="m1600.5 137.3c6.4 3.9 18.6 8 28.7 8 12.4 0 17.9-5.1 17.9-12.4 0-7.6-4.6-11.5-18.4-16.3-21.8-7.6-31-19.5-30.8-32.7 0-19.8 16.3-35.2 42.3-35.2 12.4 0 23.2 3.2 29.7 6.7l-5.5 20c-4.8-2.8-13.8-6.4-23.7-6.4-10.1 0-15.6 4.8-15.6 11.7 0 7.1 5.3 10.6 19.5 15.6 20.2 7.4 29.7 17.7 29.9 34.3 0 20.2-15.9 35-45.5 35-13.6 0-25.8-3.2-34-7.8l5.5-20.5z"/>
	<path d="m1724.9 20c0 8.5-6.2 15.2-16.1 15.2-9.4 0-15.6-6.7-15.6-15.2 0-8.7 6.4-15.4 15.9-15.4 9.6 0 15.6 6.7 15.8 15.4zm-30.1 143.3v-112h28.5v112h-28.5z"/>
	<path d="m1851 129.7c0 13.3 0.5 24.4 0.9 33.6h-24.8l-1.4-17h-0.5c-4.8 8-15.9 19.5-35.9 19.5-20.5 0-39.1-12.2-39.1-48.8v-65.7h28.3v60.9c0 18.6 6 30.6 20.9 30.6 11.3 0 18.6-8 21.6-15.2 0.9-2.5 1.6-5.5 1.6-8.7v-67.6h28.3v78.4z"/>
	<path d="m1878.6 84.6c0-12.9-0.2-23.7-0.9-33.3h24.4l1.1 16.6h0.7c5.5-8.7 15.6-19.1 34.5-19.1 14.7 0 26.2 8.3 31 20.7h0.5c3.9-6.2 8.5-10.8 13.8-14 6.2-4.4 13.3-6.7 22.5-6.7 18.6 0 37.5 12.7 37.5 48.5v66h-27.6v-61.9c0-18.6-6.4-29.7-20-29.7-9.7 0-16.8 6.9-19.8 14.9-0.7 2.8-1.4 6.2-1.4 9.4v67.2h-27.6v-64.8c0-15.6-6.2-26.7-19.3-26.7-10.6 0-17.7 8.3-20.2 16.1-1.2 2.8-1.6 6-1.6 9.2v66.2h-27.6v-78.6z"/>


	<path d="m1044.6 344.2c0 52-31.5 81.6-74.3 81.6-43.7 0-71.3-33.3-71.3-78.9 0-47.6 29.9-81.2 73.6-81.2 45.3 0.1 72 34.3 72 78.5zm-115.7 2.3c0 31.5 15.9 56.6 43 56.6 27.4 0 42.8-25.3 42.8-57.7 0-29.2-14.5-56.8-42.8-56.8-28-0.1-43 25.9-43 57.9z"/>


	<path d="m1103.8 279.3v32h26.9v21.2h-26.9v49.4c0 13.6 3.7 20.7 14.5 20.7 4.8 0 8.5-0.7 11-1.4l0.5 21.6c-4.1 1.6-11.5 2.8-20.5 2.8-10.3 0-19.1-3.5-24.4-9.2-6-6.4-8.7-16.6-8.7-31.3v-52.7h-16.1v-21.2h16.1v-25.2l27.6-6.7z"/>


	<path d="m1170.7 279.3v32h26.9v21.2h-26.9v49.4c0 13.6 3.7 20.7 14.5 20.7 4.8 0 8.5-0.7 11-1.4l0.5 21.6c-4.1 1.6-11.5 2.8-20.5 2.8-10.3 0-19.1-3.5-24.4-9.2-6-6.4-8.7-16.6-8.7-31.3v-52.7h-16.1v-21.2h16.1v-25.2l27.6-6.7z"/>
	<path d="m1234.6 375.2c0.7 20.2 16.6 29 34.5 29 13.1 0 22.5-1.8 31-5.1l4.1 19.5c-9.7 3.9-23 6.9-39.1 6.9-36.3 0-57.7-22.3-57.7-56.6 0-31 18.9-60.3 54.7-60.3 36.3 0 48.3 29.9 48.3 54.5 0 5.3-0.5 9.4-0.9 12h-74.9zm49.2-19.8c0.2-10.3-4.4-27.4-23.2-27.4-17.5 0-24.8 15.9-26 27.4h49.2z"/>
	<path d="m1330.3 347.4c0-15.2-0.2-26-0.9-36.1h24.6l0.9 21.4h0.9c5.5-15.9 18.6-23.9 30.6-23.9 2.8 0 4.4 0.2 6.7 0.7v26.7c-2.3-0.5-4.8-0.9-8.3-0.9-13.6 0-22.8 8.7-25.3 21.4-0.5 2.5-0.9 5.5-0.9 8.7v58h-28.3v-76z"/>
	<path d="m1409.2 344.6c0-12.9-0.2-23.7-0.9-33.3h24.8l1.4 16.8h0.7c4.8-8.7 17-19.3 35.6-19.3 19.5 0 39.8 12.7 39.8 48.1v66.5h-28.3v-63.4c0-16.1-6-28.3-21.4-28.3-11.3 0-19.1 8-22.1 16.6-0.9 2.5-1.2 6-1.2 9.2v65.8h-28.5v-78.7z"/>
	<path d="m1641 260v131.8c0 11.5 0.5 23.9 0.9 31.5h-25.3l-1.2-17.7h-0.5c-6.7 12.4-20.2 20.2-36.6 20.2-26.7 0-47.8-22.8-47.8-57.3-0.2-37.5 23.2-59.8 50.1-59.8 15.4 0 26.4 6.4 31.5 14.7h0.5v-63.4h28.4zm-28.3 98c0-2.3-0.2-5.1-0.7-7.4-2.5-11-11.5-20-24.4-20-18.2 0-28.3 16.1-28.3 37 0 20.5 10.1 35.4 28.1 35.4 11.5 0 21.6-7.8 24.4-20 0.7-2.5 0.9-5.3 0.9-8.3v-16.7z"/>
	<path d="m1774.9 366.3c0 41.2-29 59.6-57.5 59.6-31.7 0-56.1-21.8-56.1-57.7 0-36.8 24.1-59.3 58-59.3 33.2-0.1 55.6 23.3 55.6 57.4zm-84.5 1.1c0 21.6 10.6 37.9 27.8 37.9 16.1 0 27.4-15.9 27.4-38.4 0-17.5-7.8-37.5-27.1-37.5-20 0.1-28.1 19.4-28.1 38z"/>
	<path d="m1795.1 347.4c0-15.2-0.2-26-0.9-36.1h24.6l0.9 21.4h0.9c5.5-15.9 18.6-23.9 30.6-23.9 2.8 0 4.4 0.2 6.7 0.7v26.7c-2.3-0.5-4.8-0.9-8.3-0.9-13.6 0-22.8 8.7-25.3 21.4-0.5 2.5-0.9 5.5-0.9 8.7v58h-28.3v-76z"/>
	<path d="m1883.6 423.3v-90.8h-15.2v-21.2h15.2v-4.8c0-14.5 3.9-29 13.6-38.2 8.3-7.8 19.5-10.8 29.2-10.8 7.6 0 13.6 1.2 18.2 2.8l-2.1 21.8c-3-1.1-6.9-2.1-12-2.1-14 0-18.9 11.7-18.9 25.5v5.8h24.6v21.2h-24.4v90.8h-28.2z"/>


	<path d="m985.9 569.2c0 41.1-21.6 59.8-45.2 59.8-24.1 0-43.7-20.2-43.7-58.1 0-38.9 20.2-59.8 45.4-59.8 24.5-0.1 43.5 20.3 43.5 58.1zm-80.7 1.5c0 24.6 11.9 51.7 36.2 51.7 24.5 0 36.4-26.3 36.4-52.9 0-23.5-10.7-51.8-36.2-51.8-25.7-0.1-36.4 27.5-36.4 53z"/>
	<path d="m1054.1 627.3v-75.1h-36v75.1h-7.8v-75.1h-11.3v-6.5h11.2v-4.2c0-12.1 2.7-21.6 8.5-27.5 3.9-4.1 9.5-6.5 16.7-6.5 4.8 0 8.8 1.5 10.9 2.9l-2.6 6.3c-2-1.2-5.4-2.4-9.2-2.4-12.8 0-16.5 10.9-16.5 26.7v4.8h36v-4.9c0-11.4 2-21.4 8.3-28 4.9-5.1 11.4-7 17-7 4.8 0 8.7 1.2 11 2.5l-2.4 6.3c-2.2-1-4.9-2-9.5-2-13.8 0-16.7 13.4-16.7 28v5.1h20.1v6.5h-20.1v75.1h-7.6z"/>
	<path d="m1096.3 585c0 28.2 13.4 37.1 27.9 37.1 10 0 15.6-2 19.5-4.2l2 6.1c-3.4 2-11 4.9-22.6 4.9-21.8 0-34.7-17-34.7-41.1 0-26.9 13.8-43.7 33-43.7 23.6 0 28.4 23.5 28.4 36 0 2.2 0 3.4-0.2 4.9h-53.3zm45.4-6.3c0.2-13.9-5.6-28-21.2-28-15.5 0-22.4 15.3-23.8 28h45z"/>
	<path d="m1170.7 565.1c0-8.3-0.3-13.1-0.7-19.4h7.3l0.5 13.3h0.3c4.1-8.3 13.1-15 25-15 8.2 0 25.5 4.6 25.5 32.1v51.2h-7.8v-49.8c0-13.9-4.6-26.7-19.9-26.7-10 0-18.7 7.3-21.4 18.2-0.7 2-1 4.6-1 7.1v51.2h-7.8v-62.2z"/>
	<path d="m1257.3 585c0 28.2 13.4 37.1 27.9 37.1 10 0 15.6-2 19.5-4.2l2 6.1c-3.4 2-11 4.9-22.6 4.9-21.8 0-34.7-17-34.7-41.1 0-26.9 13.8-43.7 33-43.7 23.6 0 28.4 23.5 28.4 36 0 2.2 0 3.4-0.2 4.9h-53.3zm45.3-6.3c0.2-13.9-5.6-28-21.2-28-15.5 0-22.4 15.3-23.8 28h45z"/>


	<path d="m976.8 792.9c-5.6 2.4-16 5.6-28.9 5.6-13.1 0-25.5-3.4-35.9-13.9-8.8-8.8-15-24.1-15-43.7 0-36 21.2-59.3 53.7-59.3 10.5 0 19 2.5 23.3 4.6l-2.6 6.6c-5.1-2.4-11.6-4.2-21.1-4.2-26.3 0-45.2 17.8-45.2 51.3 0 34.7 17.9 51.7 43.9 51.7 10 0 16.5-1.5 19.7-3.2v-41.4h-23.7v-6.5h31.8v52.4z"/>
	<path d="m1041.9 797.3-1-10.9h-0.5c-3.7 6.3-11.6 12.6-22.8 12.6-14.4 0-22.3-10.5-22.3-22.4 0-19 16.1-29.7 44.9-29.6v-2.4c0-9.9-1.7-24-18.9-24-6.1 0-12.7 1.9-17.8 5.4l-2.4-5.8c6.1-4.2 14.3-6.3 21.4-6.3 19.7 0 25.5 14.3 25.5 30.4v33.8c0 6.3 0.2 13.1 1 19h-7.1zm-1.7-43.7c-14.3-0.3-36.5 1.7-36.5 21.9 0 11.9 7.1 16.8 14.8 16.8 11.6 0 18.7-7.5 21.1-16.2 0.5-1.7 0.7-3.6 0.7-4.9v-17.6z"/>
	<path d="m1074.3 735.1c0-8.3-0.3-13.1-0.7-19.4h7.3l0.5 13.3h0.3c4.1-8.3 13.1-15 25-15 8.2 0 25.5 4.6 25.5 32.1v51.2h-7.8v-49.8c0-13.9-4.6-26.7-19.9-26.7-10 0-18.7 7.3-21.4 18.2-0.7 2-1 4.6-1 7.1v51.2h-7.8v-62.2z"/>
	<path d="m1149.1 792.5 39.4-58.3c2.7-3.9 5.4-7.6 8.3-11.6v-0.3h-44.2v-6.6h53.7l-0.2 5.3-39.6 58.1c-2.5 3.7-5.1 7.5-7.8 11.2v0.3h47.4v6.6h-57.1v-4.7z"/>
	<path d="m1234.5 692.7v22.9h20.9v6.5h-20.9v53.9c0 10.5 3.2 16.2 10.9 16.2 3.6 0 6.1-0.5 8-1.2l1 6.1c-2.5 1-5.6 1.7-10.2 1.7-5.4 0-10-1.7-13.1-5.4-3.4-4.1-4.6-10.4-4.6-19.2v-52h-12.6v-6.5h12.6v-20.2l8-2.8z"/>
	<path d="m1313.5 797.3-1-10.9h-0.5c-3.7 6.3-11.6 12.6-22.8 12.6-14.5 0-22.3-10.5-22.3-22.4 0-19 16.1-29.7 44.9-29.6v-2.4c0-9.9-1.7-24-18.9-24-6.1 0-12.8 1.9-17.9 5.4l-2.4-5.8c6.1-4.2 14.3-6.3 21.4-6.3 19.7 0 25.5 14.3 25.5 30.4v33.8c0 6.3 0.2 13.1 1 19h-7zm-1.7-43.7c-14.3-0.3-36.5 1.7-36.5 21.9 0 11.9 7.1 16.8 14.8 16.8 11.6 0 18.7-7.5 21.1-16.2 0.5-1.7 0.7-3.6 0.7-4.9v-17.6z"/>
	<path d="m1405.2 715.7c-0.3 5.6-0.7 12.1-0.7 22.3v47.6c0 21.8-3.7 31.3-10 37.6-6.5 6.5-16.3 9.2-25 9.2-8.5 0-17.7-2.2-23-6.1l2.7-6.3c4.8 3.1 12.1 5.8 21.4 5.8 15 0 25.8-8 25.8-31.6v-11.2h-0.3c-3.7 7.8-12.2 14.3-24.6 14.3-18 0-31.5-16.7-31.5-40.3 0-29.6 17.5-43 33.2-43 14.3 0 20.9 8.3 23.8 14.3h0.3l0.3-12.6h7.6zm-8.7 30.1c0-2.7-0.2-5.1-0.8-7.3-2.9-9-9.9-17.8-22.1-17.8-15.3 0-25.5 14.1-25.5 35.5 0 20.2 9.2 34.5 25.3 34.5 9 0 18.2-5.3 21.9-17.5 0.8-2.9 1.2-5.8 1.2-8.5v-18.9z"/>
	<path d="m1428.1 786.9c3.9 2.4 9.7 5.3 16.5 5.3 11.6 0 17.5-6.8 17.5-15.5 0-8.3-4.4-13.4-15.3-18.5-12.1-5.6-19.5-12.4-19.5-22.6 0-11.9 9.3-21.6 23.6-21.6 7.1 0 12.8 2.2 16.7 4.9l-3.2 6.5c-2.9-2.2-7.6-4.8-14.4-4.8-9.7 0-14.8 6.6-14.8 13.8 0 8 4.8 11.6 15 16.7 11.6 5.3 19.9 11.9 19.9 24.5 0 14.6-10.9 23.3-25.8 23.3-7.1 0-14.1-2-18.9-5.4l2.7-6.6z"/>
	<path d="m1487.9 786.9c3.9 2.4 9.7 5.3 16.5 5.3 11.6 0 17.5-6.8 17.5-15.5 0-8.3-4.4-13.4-15.3-18.5-12.1-5.6-19.5-12.4-19.5-22.6 0-11.9 9.3-21.6 23.6-21.6 7.1 0 12.8 2.2 16.7 4.9l-3.2 6.5c-2.9-2.2-7.6-4.8-14.4-4.8-9.7 0-14.8 6.6-14.8 13.8 0 8 4.8 11.6 15 16.7 11.6 5.3 19.9 11.9 19.9 24.5 0 14.6-10.9 23.3-25.8 23.3-7.1 0-14.1-2-18.9-5.4l2.7-6.6z"/>
	<path d="m1601.3 794.1c-3.4 1.9-10.7 4.8-20.6 4.8-21.2 0-35.7-16.3-35.7-41.6 0-24.8 15.5-43.2 38.2-43.2 8.2 0 15.3 2.4 18.4 4.4l-2.7 6.6c-3.4-1.9-8.8-4.2-16.7-4.2-19.7 0-29.2 17.5-29.2 36 0 21.6 11.9 35.2 28.9 35.2 8 0 13.3-2.2 17.3-4.1l2.1 6.1z"/>
	<path d="m1620.7 677.4h7.8v51.2h0.3c2.2-4.1 5.8-8 9.9-10.5 4.2-2.6 9-4.1 14.8-4.1 7.6 0 25.2 4.2 25.2 31.8v51.5h-7.8v-50.1c0-13.8-4.8-26.3-19.5-26.3-10.4 0-18.7 7.6-21.8 17.8-0.9 2.4-1 4.6-1 7.5v51.2h-7.8v-120z"/>
	<path d="m1762 777.2c0 7.8 0.3 14.1 0.7 20.1h-7.1l-0.7-12.8h-0.3c-3.4 6.3-11.7 14.5-24.6 14.5-11.2 0-25-6.8-25-34.2v-49.1h7.8v47.4c0 16.8 4.4 29.1 19 29.1 11.4 0 18.7-8.8 21.2-15.8 0.7-2.5 1.2-5.6 1.2-8.7v-52h7.8v61.5z"/>
	<path d="M1789,677.4h7.8v119.8h-7.8V677.4z"/>
	<path d="m1826.6 755c0 28.2 13.4 37.1 27.9 37.1 10 0 15.6-2 19.5-4.2l2 6.1c-3.4 2-11 4.9-22.6 4.9-21.8 0-34.7-17-34.7-41.1 0-26.9 13.8-43.7 33-43.7 23.6 0 28.4 23.5 28.4 36 0 2.2 0 3.4-0.2 4.9h-53.3zm45.4-6.3c0.2-13.9-5.6-28-21.2-28-15.5 0-22.4 15.3-23.8 28h45z"/>
</g>
</svg>
