<?xml version="1.0" encoding="UTF-8"?>
<svg enable-background="new 0 0 2073 854" version="1.1" viewBox="0 0 2073 854" xml:space="preserve" xmlns="http://www.w3.org/2000/svg">
<g transform="translate(-408.58 2.8945)">
	<path fill="#3E74B9" d="m419.9 18.9c28.8 122.2 14.3 254-2.5 385.4 93-23 203.7-30.4 353.4-9.2-10.2-106.7-23.2-211.2-1.5-375.3-101.1 32.6-220.7 22.2-349.4-0.9zm198.1 50.5c24.4 0 52.3 3.6 83.8 11.7v45.5c-230.2-99.4-211.4 236.5-57 192.2v-90.6h57.3v119.2c-175.8 46.3-234.6-33.2-232.7-138.6 1.2-71.2 42.7-139.4 148.6-139.4z"/>
	<path fill="#72B62B" d="m796.7 11.1c28.8 122.2 17.1 252.6 0.4 384 93-23 201.8-33.6 351.5-12.3-10.2-106.7-24.3-206.9 0.3-371-101.2 32.5-223.5 22.4-352.2-0.7zm171.7 41.7c2.4 0 4.8 0 7.3 0.1 78.5 3.7 131.2 66.6 134.7 145 3.5 78.3-40.6 157.2-138.3 155.5s-140.6-79.4-136.9-155.3c3.6-73.5 58.4-144.3 133.2-145.3zm7.4 42.1c-48.9 0.5-80.6 40.6-80.8 108.8-0.2 59.4 34.8 107.6 77.8 107.6 42.9 0 77.6-41.1 77.8-107.6 0.1-59.5-26.4-109.3-74.8-108.8z"/>
	<path fill="#89CDD0" d="m1147.5 413.5c-107.8 18.4-218.6 24.4-351.1 9.4 19.1 120.4 14.1 253.9-2.2 384 4.9-1.2 9.8-2.4 14.8-3.5-5 1.1-9.9 2.3-14.8 3.5-0.2 1.4-0.3 2.8-0.5 4.2 93-23 201.8-33.6 351.5-12.3-0.2-2-0.4-4.1-0.6-6.1-4.5-0.6-9-1.2-13.4-1.7 4.4 0.5 8.9 1.1 13.4 1.7-10-105.1-21.2-218.2 2.9-379.2zm-148.1 38.7c25.7 0 55 3.8 88.2 12.3v47.8c-242.2-104.6-222.3 248.7-60 202.2v-95.3h60.3v125.4c-184.9 48.7-246.7-34.9-244.8-145.8 1.3-74.9 45-146.6 156.3-146.6zm0.4 330.6h3.8 4.5c5.4 0.1 10.8 0.1 16.2 0.3-5.5-0.1-10.9-0.2-16.2-0.3h-4.5-15.8 12z"/>
	<path fill="#11682E" d="m776.2 410.9c-107.8 18.4-218.5 15.8-351 0.9 19.3 121.6 14 256.8-2.7 388.2 93-23 203.6-38.6 353.3-17.3-10.1-106.8-24.2-207.7 0.4-371.8zm-181.2 44.2c2.4 0 4.8 0 7.3 0.1 78.5 3.7 131.2 66.6 134.7 145 3.5 78.3-40.6 157.2-138.3 155.5s-140.7-79.4-136.9-155.2c3.6-73.5 58.4-144.4 133.2-145.4zm7.4 42.1c-48.9 0.5-80.6 40.6-80.8 108.8-0.2 59.4 34.8 107.6 77.8 107.6 42.9 0 77.6-41.1 77.8-107.6 0.1-59.4-26.4-109.3-74.8-108.8z"/>
</g>

	<path fill="#11682E" d="m993.5 196.1c-11.4 4.9-32.6 11.6-54.5 11.6-29.6 0-50.9-9.2-65.5-26.5-13.5-16.2-21-38.6-21-64 0-58.6 36.7-95.3 89.8-95.3 21.3 0 37.6 5.1 45.7 9.7l-7.5 34c-9.2-5.1-20.4-8.9-39.3-8.9-30.1 0-52.6 20-52.6 57 0 35.6 20.6 59.7 52 59.7 9 0 16.3-1.4 19.5-3v-36.4h-25.6v-33.2h59.1v95.3z"/>
	<path fill="#11682E" d="m1044 73.8 17.6 63.5c1.9 7.8 4.3 18.6 6 25.4h0.6c1.7-7.3 3.7-17.8 5.4-25.4l14.4-63.5h37.4l-25.3 81.8c-18.5 61.8-29.4 81-41.7 93.2-12 12.2-24.5 16.2-33.9 17l-6.4-35.9c3.9-0.5 9-2.4 14.4-5.7 5.4-3 11.6-9.7 15-16.7 1.1-1.9 1.9-4.3 1.9-5.9s-0.4-3.5-1.7-7.3l-41.7-120.5h38z"/>
	<path fill="#11682E" d="m1140.4 116.8c0-17.3-0.4-31.6-0.9-42.9h28.6l1.5 18.6h0.6c4.3-7.8 13.7-21.9 33.9-21.9 14.4 0 26 9.2 30.9 24h0.4c4.3-7.6 9.2-13.2 14.6-17 6-4.6 12.9-7 21.7-7 20.4 0 38 17.6 38 59.4v75.9h-33.1v-69.7c0-20.5-6-31.3-17.4-31.3-8.4 0-14.2 7-16.3 15.1-1.1 3.2-1.3 7.6-1.3 10.8v75.1h-33.1v-71.3c0-18.9-6.2-29.7-17.2-29.7-9.7 0-14.8 9.5-16.8 15.7-1.1 3.5-1.3 7.3-1.3 10.5v74.8h-33.1v-89.1z"/>
	<path fill="#11682E" d="m1337.9 116.8c0-17.3-0.4-31.6-0.9-42.9h29.6l1.5 19.2h0.9c3.9-7.8 15-22.4 34.8-22.4 21.9 0 40.8 17.3 40.8 59.1v76.1h-34.1v-70.2c0-18.9-5.8-30.8-18.7-30.8-10.5 0-16.3 9.2-18.7 16.7-0.9 2.4-1.1 6.2-1.1 9.5v74.8h-34.1v-89.1z"/>
	<path fill="#11682E" d="m1536.8 205.9-2.1-13.2h-0.6c-7.3 10.8-18.9 16.5-32.2 16.5-23.4 0-36.1-20.3-36.1-40.5 0-34.3 24.5-51.3 66.1-51.3v-1.1c0-5.9-2.4-16.7-20.8-16.7-11.4 0-24.3 5.1-31.4 10.5l-6.4-27c7.9-5.7 23-12.4 43.6-12.4 36.1 0 49.2 25.1 49.2 57.5v45.1c0 13.5 0.4 25.7 1.7 32.7h-31zm-3.9-61.9c-20-0.3-33.3 5.4-33.3 20.3 0 9.7 5.4 15.1 14 15.1 9 0 16.5-7.8 18.7-16.5 0.4-2.4 0.6-5.1 0.6-7.3v-11.6z"/>
	<path fill="#11682E" d="m1593.9 168.6c6.7 5.1 20.8 10.8 31.1 10.8 10.7 0 15-4 15-10.5 0-6.8-3.4-9.7-16.5-14.3-23.4-8.1-33.1-23.5-32.9-40 0-25.4 17.6-44 45.5-44 13.3 0 25.6 3.8 32.2 8.1l-5.8 29.2c-4.9-3.2-15.7-8.1-25.6-8.1-8.2 0-13.3 3.5-13.3 10.3 0 6.5 4.9 10 18.7 14.9 21.5 7.8 30.7 20.3 30.9 41 0 23.8-15.2 43.2-48.1 43.2-15.5 0-28.3-4.3-37.6-10l6.4-30.6z"/>
	<path fill="#11682E" d="m1730.5 36.3c0 11.6-6.9 21.1-18.5 21.1-11.2 0-18-9.5-18-21.1s6.9-20.8 18.3-20.8 18 9.2 18.2 20.8zm-35.5 169.6v-132h34.1v132h-34.1z"/>
	<path fill="#11682E" d="m1863.8 162.9c0 18.1 0.4 32.4 0.9 42.9h-29.6l-1.5-20.3h-0.9c-3.9 7.8-14 23.5-35.4 23.5-21.9 0-39.9-16.2-39.9-58.6v-76.6h34.1v69.2c0 20 5.8 31.9 18.5 31.9 10.3 0 16.3-8.9 18.7-16.5 0.6-2.2 1.1-4.9 1.1-7.8v-76.8h34.1v89.1z"/>
	<path fill="#11682E" d="m1892.2 116.8c0-17.3-0.4-31.6-0.9-42.9h28.6l1.5 18.6h0.6c4.3-7.8 13.7-21.9 33.9-21.9 14.4 0 26 9.2 30.9 24h0.4c4.3-7.6 9.2-13.2 14.6-17 6-4.6 12.9-7 21.7-7 20.4 0 38 17.6 38 59.4v75.9h-33.1v-69.7c0-20.5-6-31.3-17.4-31.3-8.4 0-14.2 7-16.3 15.1-1.1 3.2-1.3 7.6-1.3 10.8v75.1h-33.1v-71.3c0-18.9-6.2-29.7-17.2-29.7-9.7 0-14.8 9.5-16.8 15.7-1.1 3.5-1.3 7.3-1.3 10.5v74.8h-33.1v-89.1z"/>
	<path fill="#11682E" d="m1007 363.5c0 56.7-31.6 95.6-79 95.6-46.2 0-75.6-40-75.6-92.3 0-56.2 31.8-96.1 77.9-96.1 47.8-0.1 76.7 39.6 76.7 92.8zm-118.3 1.9c0 33.8 15.9 60.2 41.2 60.2 25.6 0 40.8-25.9 40.8-60.8 0-33.2-15-60.8-40.8-60.8-25.9 0.1-41.2 27.4-41.2 61.4z"/>
	<path fill="#11682E" d="m1073.8 285.2v38.6h24.5v31.9h-24.5v43.7c0 16.2 2.4 24.6 13.5 24.6 4.7 0 8.4-0.5 10.5-1.4l0.2 32.4c-4.3 2.2-12.7 4-22.3 4-11.4 0-20.8-5.4-26.2-12.4-6.2-8.1-9-21.6-9-39.7v-51.3h-14.6v-31.9h14.6v-28.9l33.3-9.6z"/>
	<path fill="#11682E" d="m1161 285.2v38.6h24.5v31.9h-24.5v43.7c0 16.2 2.4 24.6 13.5 24.6 4.7 0 8.4-0.5 10.5-1.4l0.2 32.4c-4.3 2.2-12.7 4-22.3 4-11.4 0-20.8-5.4-26.2-12.4-6.2-8.1-9-21.6-9-39.7v-51.3h-14.6v-31.9h14.6v-28.9l33.3-9.6z"/>
	<path fill="#11682E" d="m1235.3 403.2c1.1 15.9 15.9 24 32 24 12 0 21.9-1.6 31.8-5.9l4.7 28.6c-12 6.2-26 9.2-41.2 9.2-37.8 0-59.9-26.7-59.9-68 0-30 16.1-70.5 56.7-70.5 37.8 0 50.7 36.7 50.7 67 0 6.5-0.6 13-1.3 15.7h-73.5zm42.7-29.1c0-7.6-3.4-25.7-20.4-25.7-15.5 0-21.7 15.4-22.8 25.7h43.2z"/>
	<path fill="#11682E" d="m1334.9 368.7c0-21.6-0.2-34-0.9-44.8h29.2l1.3 25.9h0.6c5.8-21.1 20-29.2 30.9-29.2 3 0 4.7 0 7.3 0.8v39.7c-2.8-0.8-5.6-1.4-9.7-1.4-14.2 0-22.3 8.9-24.3 21.6-0.2 2.4-0.4 5.1-0.4 7.8v66.7h-34.1v-87.1z"/>
	<path fill="#11682E" d="m1426.8 366.8c0-17.3-0.4-31.6-0.9-42.9h29.6l1.5 19.2h0.9c3.9-7.8 15-22.4 34.8-22.4 21.9 0 40.8 17.3 40.8 59.1v76.1h-34.1v-70.2c0-18.9-5.8-30.8-18.7-30.8-10.5 0-16.3 9.2-18.7 16.7-0.9 2.4-1.1 6.2-1.1 9.5v74.8h-34.1v-89.1z"/>
	<path fill="#11682E" d="m1676.1 262.5v153.6c0 15.9 0.4 31.9 0.9 39.7h-30.5l-1.3-20.8h-0.4c-7.7 16.5-21.9 24-36.7 24-25.6 0-49-25.4-49-67.8-0.2-44 24.1-70.7 51.5-70.7 14.2 0 25.6 5.7 30.9 15.4h0.4v-73.4h34.2zm-34.1 119.1c0-2.4 0-5.1-0.4-7.3-2.1-12.1-10.5-21.9-21.9-21.9-16.7 0-25.6 16.5-25.6 37 0 21.3 9.9 35.6 25.3 35.6 11.2 0 20-10 21.9-22.4 0.6-3 0.6-6.5 0.6-9.7v-11.3z"/>
	<path fill="#11682E" d="m1821.5 388.1c0 46.2-28.3 71-60.6 71-32.4 0-59.1-25.7-59.1-68.3 0-41 23.2-70.2 61.4-70.2 34.7 0 58.3 28.3 58.3 67.5zm-83.9 1.9c0 22.4 9.2 38.9 24.5 38.9 13.7 0 23.8-14 23.8-39.2 0-20-7.3-39.2-23.8-39.2-17.2 0.1-24.5 19.5-24.5 39.5z"/>
	<path fill="#11682E" d="m1847.3 368.7c0-21.6-0.2-34-0.9-44.8h29.2l1.3 25.9h0.6c5.8-21.1 20-29.2 30.9-29.2 3 0 4.7 0 7.3 0.8v39.7c-2.8-0.8-5.6-1.4-9.7-1.4-14.2 0-22.3 8.9-24.3 21.6-0.2 2.4-0.4 5.1-0.4 7.8v66.7h-34.1v-87.1z"/>
	<path fill="#11682E" d="m1948.2 455.9v-100.2h-14v-31.9h14v-5.1c0-16.2 4.3-34.8 14-45.9 9-10.3 20.8-13.5 30.3-13.5 7.3 0 12.9 1.1 17.6 2.7l-0.9 32.9c-3-1.1-6.4-1.9-11.2-1.9-11.2 0-15.9 10.5-15.9 23.8v7h21.9v31.9h-21.7v100.2h-34.1z"/>


	<path fill="#11682E" d="m951 586.2c0 41.8-20.2 63.9-44.8 63.9-25.5 0-43.4-24.8-43.4-61.6 0-38.5 19-63.7 44.8-63.7 26.3 0 43.4 25.4 43.4 61.4zm-74.9 2c0 25.9 11.2 49.1 30.8 49.1 19.8 0 30.9-22.9 30.9-50.4 0-24.1-10-49.3-30.8-49.3-20.6 0-30.9 23.9-30.9 50.6z"/>
	<path fill="#11682E" d="m1017.5 648.1v-75.1h-29.1v75.1h-12.4v-75.1h-9.7v-12h9.7v-2.9c0-12.2 2.3-22.9 7.7-29.7 4-5 9.7-8.1 17.5-8.1 4 0 7.7 1.6 9.9 3.1l-2.6 11.7c-1.9-1.1-4.6-2.2-7.4-2.2-9.9 0-12.6 10.6-12.6 24.3v3.8h29.1v-4.1c0-12.2 2.3-23.4 8.2-30.4 4.7-5.8 11-8.1 16.7-8.1 4.6 0 8.3 1.3 10.7 2.5l-1.6 12.2c-2-1.1-4.4-2-8.2-2-10.6 0-13.5 11.9-13.5 25.2v4.7h16.7v12.1h-16.6v75.1h-12.5z"/>
	<path fill="#11682E" d="m1069.1 607.4c0.3 21.4 11.2 30.2 23.8 30.2 9 0 14.5-2 19.2-4.5l2.1 11.3c-4.4 2.5-12 5.4-23 5.4-21.3 0-34.1-17.6-34.1-43.9s12.3-47 32.5-47c22.6 0 28.6 25 28.6 41 0 3.2-0.3 5.8-0.4 7.4h-48.7zm36.9-11.3c0.1-10.1-3.3-25.7-17.5-25.7-12.7 0-18.3 14.8-19.3 25.7h36.8z"/>
	<path fill="#11682E" d="m1139.5 584.6c0-9-0.1-16.4-0.6-23.6h11.2l0.7 14.4h0.3c3.4-8.3 11.5-16.4 22.9-16.4 9.6 0 24.5 7.2 24.5 37.1v52h-12.6v-50.2c0-14-4.2-25.7-16-25.7-8.3 0-14.7 7.4-16.9 16.2-0.6 2-0.9 4.7-0.9 7.4v52.4h-12.6v-63.6z"/>
	<path fill="#11682E" d="m1231.7 607.4c0.3 21.4 11.2 30.2 23.8 30.2 9 0 14.5-2 19.2-4.5l2.1 11.3c-4.4 2.5-12 5.4-23 5.4-21.3 0-34.1-17.6-34.1-43.9s12.3-47 32.5-47c22.6 0 28.6 25 28.6 41 0 3.2-0.3 5.8-0.4 7.4h-48.7zm36.9-11.3c0.1-10.1-3.3-25.7-17.5-25.7-12.7 0-18.3 14.8-19.3 25.7h36.8z"/>
	<path fill="#11682E" d="m942 802.7c-5.6 2.5-16.6 6.7-29.6 6.7-14.6 0-26.6-4.7-36.1-16-8.3-10.1-13.5-26.3-13.5-45.2 0.1-36.2 19.9-62.6 52.3-62.6 11.2 0 19.9 3.1 24 5.6l-3 12.8c-5.2-2.9-11.6-5.2-21.3-5.2-23.5 0-38.8 18.4-38.8 48.8 0 30.8 14.7 49 37.2 49 8.2 0 13.7-1.4 16.6-3.2v-36.4h-19.6v-12.6h31.8v58.3z"/>
	<path fill="#11682E" d="m1005.8 808.1-1-11h-0.4c-3.9 6.8-11.3 13-21.2 13-14 0-21.2-12.4-21.2-25 0-21.1 14.9-32.6 41.7-32.4v-1.8c0-7.2-1.6-20.2-15.7-20.2-6.4 0-13.2 2.5-18 6.5l-2.9-10.4c5.7-4.7 14-7.7 22.8-7.7 21.2 0 26.3 18.2 26.3 35.6v32.6c0 7.6 0.3 14.9 1.1 20.9h-11.5zm-1.9-44.4c-13.7-0.4-29.3 2.7-29.3 19.6 0 10.3 5.4 15.1 11.9 15.1 9 0 14.7-7.2 16.8-14.6 0.4-1.6 0.7-3.4 0.7-5v-15.1z"/>
	<path fill="#11682E" d="m1042.2 744.6c0-9-0.1-16.4-0.6-23.6h11.2l0.7 14.4h0.3c3.4-8.3 11.5-16.4 22.9-16.4 9.6 0 24.5 7.2 24.5 37.1v52h-12.6v-50.2c0-14-4.2-25.7-16-25.7-8.3 0-14.7 7.4-16.9 16.2-0.6 2-0.9 4.7-0.9 7.4v52.4h-12.6v-63.6z"/>
	<path fill="#11682E" d="m1119.5 798.9 31.4-51.3c3-4.7 5.9-8.8 9-13.5v-0.4h-37.5v-12.7h52.8l-0.1 9.9-30.9 50.6c-2.9 4.9-5.7 9.2-8.9 13.7v0.4h40.5v12.6h-56.3v-9.3z"/>
	<path fill="#11682E" d="m1209.5 696v25h18v12.1h-18v47c0 10.8 2.4 16.9 9.4 16.9 3.3 0 5.7-0.5 7.3-1.1l0.6 11.9c-2.4 1.3-6.3 2.2-11.2 2.2-5.9 0-10.6-2.3-13.6-6.7-3.6-4.7-4.9-12.4-4.9-22.7v-47.5h-10.7v-12.1h10.7v-20.9l12.4-4.1z"/>
	<path fill="#11682E" d="m1285.8 808.1-1-11h-0.4c-3.9 6.8-11.3 13-21.2 13-14 0-21.2-12.4-21.2-25 0-21.1 14.9-32.6 41.7-32.4v-1.8c0-7.2-1.6-20.2-15.7-20.2-6.4 0-13.2 2.5-18 6.5l-2.9-10.4c5.7-4.7 14-7.7 22.8-7.7 21.2 0 26.3 18.2 26.3 35.6v32.6c0 7.6 0.3 14.9 1.1 20.9h-11.5zm-1.8-44.4c-13.7-0.4-29.3 2.7-29.3 19.6 0 10.3 5.4 15.1 11.9 15.1 9 0 14.7-7.2 16.8-14.6 0.4-1.6 0.7-3.4 0.7-5v-15.1z"/>
	<path fill="#11682E" d="m1381.9 721c-0.3 6.3-0.6 13.3-0.6 23.9v50.6c0 20-3.1 32.2-9.9 39.8-6.7 7.9-16.5 10.4-25.2 10.4-8.3 0-17.5-2.5-23-7.2l3.1-12.1c4.6 3.6 11.7 6.8 20.3 6.8 12.9 0 22.3-8.5 22.3-30.4v-9.7h-0.3c-3.9 8.1-11.3 14.6-22 14.6-17.2 0-29.5-18.4-29.5-42.5 0-29.5 15.3-46.3 31.2-46.3 12 0 18.6 7.9 21.6 15.1h0.3l0.6-13.1h11.1zm-13.1 34.4c0-2.7-0.1-5-0.7-7.2-2.3-9.2-8.4-16.7-17.6-16.7-12 0-20.6 12.8-20.6 32.9 0 17.1 6.9 31.3 20.5 31.3 7.7 0 14.7-6.1 17.5-16.2 0.7-2.7 1-5.8 1-8.5v-15.6z"/>
	<path fill="#11682E" d="m1406.2 791.9c3.7 3.1 10.3 6.3 16.6 6.3 9.2 0 13.5-5.8 13.5-13 0-7.6-3.6-11.7-12.9-16-12.5-5.6-18.3-14.2-18.3-24.7 0-14 9-25.6 23.9-25.6 7 0 13.2 2.5 17 5.4l-3.1 11.5c-2.7-2.2-7.7-5-14.2-5-7.4 0-11.6 5.4-11.6 11.9 0 7.2 4.2 10.4 13.2 14.8 12 5.8 18.2 13.3 18.2 26.3 0 15.3-9.4 26.1-25.9 26.1-7.6 0-14.6-2.3-19.5-5.9l3.1-12.1z"/>
	<path fill="#11682E" d="m1468.6 791.9c3.7 3.1 10.3 6.3 16.6 6.3 9.2 0 13.5-5.8 13.5-13 0-7.6-3.6-11.7-12.9-16-12.5-5.6-18.3-14.2-18.3-24.7 0-14 9-25.6 23.9-25.6 7 0 13.2 2.5 17 5.4l-3.1 11.5c-2.7-2.2-7.7-5-14.2-5-7.4 0-11.6 5.4-11.6 11.9 0 7.2 4.2 10.4 13.2 14.8 12 5.8 18.2 13.3 18.2 26.3 0 15.3-9.4 26.1-25.9 26.1-7.6 0-14.6-2.3-19.5-5.9l3.1-12.1z"/>
	<path fill="#11682E" d="m1582.1 804.9c-3.3 2.2-10.6 5-19.9 5-20.9 0-34.5-17.8-34.5-44.5 0-26.8 14.6-46.3 37.2-46.3 7.4 0 14 2.3 17.5 4.5l-2.9 12.2c-3-2.2-7.7-4.1-14.6-4.1-15.9 0-24.5 14.8-24.5 32.9 0 20.2 10.3 32.6 24.1 32.6 7.2 0 11.9-2.3 15.5-4.3l2.1 12z"/>
	<path fill="#11682E" d="m1602.6 680.3h12.6v54.4h0.3c2-4.5 5.2-8.5 9-11.2 3.7-2.7 8.2-4.5 12.9-4.5 9.3 0 24.2 7.2 24.2 37.3v51.8h-12.6v-50c0-14-4.2-25.9-16-25.9-8.2 0-14.6 7.2-16.9 15.8-0.7 2.2-0.9 4.5-0.9 7.6v52.6h-12.6v-127.9z"/>
	<path fill="#11682E" d="m1745.8 784.4c0 9 0.1 16.9 0.6 23.8h-11.2l-0.7-14.2h-0.3c-3.3 7-10.6 16.2-22.9 16.2-10.9 0-23.9-7.6-23.9-38.2v-51h12.6v48.2c0 16.6 4 27.7 15.5 27.7 8.4 0 14.3-7.4 16.6-14.4 0.7-2.3 1.1-5.2 1.1-8.1v-53.4h12.6v63.4z"/>
	<path fill="#11682E" d="M1772.4,680.3h12.6v127.8h-12.6V680.3z"/>
	<path fill="#11682E" d="m1818.9 767.4c0.3 21.4 11.2 30.2 23.8 30.2 9 0 14.5-2 19.2-4.5l2.1 11.3c-4.4 2.5-12 5.4-23 5.4-21.3 0-34.1-17.6-34.1-43.9s12.3-47 32.5-47c22.6 0 28.6 25 28.6 41 0 3.2-0.3 5.8-0.4 7.4h-48.7zm37-11.3c0.1-10.1-3.3-25.7-17.5-25.7-12.7 0-18.3 14.8-19.3 25.7h36.8z"/>

</svg>
