<?xml version="1.0" encoding="UTF-8"?>
<svg width="336.25" height="367.79" version="1.1" viewBox="0 0 336.25 367.79" xmlns="http://www.w3.org/2000/svg" xmlns:cc="http://creativecommons.org/ns#" xmlns:dc="http://purl.org/dc/elements/1.1/" xmlns:rdf="http://www.w3.org/1999/02/22-rdf-syntax-ns#">
 <metadata>
  <rdf:RDF>
   <cc:Work rdf:about="">
    <dc:format>image/svg+xml</dc:format>
    <dc:type rdf:resource="http://purl.org/dc/dcmitype/StillImage"/>
    <dc:title/>
   </cc:Work>
  </rdf:RDF>
 </metadata>
 <g fill="#fff">
  <rect x="187.13" y="199.59" width="132.23" height="147.41"/>
  <rect x="17.546" y="198.44" width="132.23" height="147.41"/>
  <rect x="187.53" y="15.698" width="132.23" height="147.41"/>
  <rect x="14.891" y="18.655" width="132.23" height="147.41"/>
 </g>
 <g transform="translate(-408.58 2.8945)">
  <path d="m409.71 0.69934c13.228 56.177 6.5623 116.79-1.1277 177.2 42.736-10.555 93.65-13.972 162.47-4.2116-4.6733-49.076-10.659-97.113-0.66863-172.54-46.498 14.963-101.51 10.152-160.68-0.44549zm91.058 23.226c11.227 0.0015 24.03 1.6742 38.543 5.3828v20.908c-105.84-45.709-97.181 108.72-26.217 88.359v-41.654h26.359v54.814c-80.814 21.273-107.84-15.252-106.99-63.705 0.57609-32.766 19.653-64.112 68.305-64.105z" fill="#3e74b9"/>
  <path d="m582.94-2.8945c13.228 56.177 7.8736 116.11 0.18359 176.52 42.736-10.555 92.761-15.435 161.59-5.6738-4.6733-49.076-11.179-95.132 0.125-170.56-46.498 14.963-102.72 10.31-161.89-0.28711zm78.938 19.152c1.1089-0.0149 2.226 0.0036 3.3535 0.05664 36.081 1.6965 60.295 30.64 61.924 66.66 1.6286 36.02-18.682 72.291-63.596 71.492-44.914-0.7989-64.643-36.519-62.926-71.402 1.6639-33.793 26.867-66.347 61.244-66.807zm3.3887 19.354c-22.488 0.23268-37.032 18.663-37.125 50.025-0.0812 27.331 16.003 49.486 35.746 49.486 19.743 3e-5 35.666-18.891 35.748-49.486 0.0729-27.331-12.112-50.256-34.369-50.025z" fill="#72b62b"/>
  <path d="m744.2 182.09c-49.56 8.4698-100.5 11.195-161.4 4.3398 8.7923 55.332 6.4936 116.74-1.0039 176.54 2.2596-0.54811 4.5239-1.0911 6.8242-1.6074-2.3004 0.51675-4.5646 1.0611-6.8242 1.6094-0.0802 0.64007-0.15294 1.2822-0.23437 1.9219 42.736-10.555 92.761-15.435 161.59-5.6738-0.0876-0.91949-0.17559-1.867-0.26367-2.7891-2.0701-0.26966-4.1286-0.52945-6.166-0.77343 2.038 0.24405 4.0958 0.50221 6.166 0.77148-4.6126-48.293-9.7714-100.33 1.3203-174.34zm-68.076 17.789c11.81 1e-3 25.275 1.7592 40.541 5.6602v21.994c-111.33-48.079-102.22 114.35-27.576 92.939v-43.812h27.727v57.656c-85.004 22.376-113.43-16.042-112.54-67.008 0.60596-34.465 20.671-67.436 71.846-67.43zm0.19532 151.98c0.57923 4.2e-4 1.1697 9e-3 1.752 0.0117 0.69062 3e-3 1.3834 9e-3 2.0781 0.0156 2.4652 0.023 4.9469 0.0568 7.4648 0.1211-2.5189-0.0643-4.9994-0.0983-7.4648-0.1211-0.69482-6e-3 -1.3875-0.0124-2.0781-0.0156-2.4424-0.0113-4.87-0.0107-7.2617 0.0176 1.8226-0.0218 3.6578-0.0303 5.5098-0.0293z" fill="#89cdd0"/>
  <path d="m573.53 180.92c-49.56 8.4698-100.47 7.2519-161.38 0.39648 8.8865 55.924 6.4517 118.06-1.2383 178.47 42.736-10.555 93.612-17.734 162.44-7.9727-4.6733-49.076-11.128-95.466 0.17578-170.89zm-83.318 20.324c1.1089-0.0149 2.226 4e-3 3.3535 0.0566 36.081 1.6965 60.295 30.64 61.924 66.66 1.6286 36.02-18.682 72.291-63.596 71.492-44.914-0.7989-64.643-36.519-62.926-71.402 1.6639-33.793 26.867-66.347 61.244-66.807zm3.3887 19.354c-22.488 0.23268-37.032 18.663-37.125 50.025-0.0812 27.331 16.003 49.486 35.746 49.486 19.743 3e-5 35.666-18.891 35.748-49.486 0.0729-27.331-12.112-50.256-34.369-50.025z" fill="#11682e"/>
 </g>
</svg>
