<?xml version="1.0" encoding="UTF-8"?>
<svg version="1.1" viewBox="0 0 502.16 502.16" xml:space="preserve" xmlns="http://www.w3.org/2000/svg" xmlns:cc="http://creativecommons.org/ns#" xmlns:dc="http://purl.org/dc/elements/1.1/" xmlns:rdf="http://www.w3.org/1999/02/22-rdf-syntax-ns#"><metadata><rdf:RDF><cc:Work rdf:about=""><dc:format>image/svg+xml</dc:format><dc:type rdf:resource="http://purl.org/dc/dcmitype/StillImage"/><dc:title/></cc:Work></rdf:RDF></metadata>
<g transform="translate(1 1)" fill="currentColor">		
	<path d="m389.97 26.086c-1.211-0.909-2.641-1.373-4.053-1.407-4.915-4.475-10.298-8.505-16.091-12.022-14.269-8.393-27.698-12.59-41.128-13.43-68.826-2.518-116.67 15.948-138.49 53.718l-2.518 3.357c-4.197 7.554-9.233 15.108-14.269 22.662l-60.433 105.76c-17.626 31.056-34.413 57.075-52.039 78.898-18.466 23.502-38.61 61.272-31.895 109.95 5.806 38.707 31.457 69.461 66.641 83.536l24.848 25.579 0.839 0.839c10.911 8.393 23.502 14.269 35.252 15.948 5.875 0.839 11.751 1.679 17.626 1.679 20.144 0 41.128-5.036 62.951-16.787 33.574-16.787 61.272-45.325 80.577-80.577l36.931-68.826c5.036-10.072 13.429-18.466 23.502-26.02 52.039-36.931 86.452-130.94 88.131-135.97 31.896-81.415-72.183-144.37-76.38-146.88zm-344.97 344.97c-5.875-42.807 12.59-76.38 28.538-97.364 18.466-22.662 36.092-48.682 53.718-80.577l60.433-104.92c5.036-7.554 10.072-15.948 14.269-23.502l2.518-4.197c17.626-29.377 56.236-45.325 112.47-45.325h10.911c10.072 0.839 20.984 4.197 31.895 10.911 6.457 3.766 12.306 8.312 17.417 13.465 0.303 0.564 0.652 1.115 1.049 1.643 5.036 5.036 9.233 10.911 12.59 16.787l0.839 1.679c0.839 2.518 2.518 5.036 3.357 7.554l0.048 0.012c1.425 3.807 2.538 7.73 3.309 11.739 3.357 13.43 4.197 27.698 3.357 40.289-1.679 22.662-10.911 44.485-26.859 62.112l-83.095 92.328-53.718 73.023c-10.072 13.43-21.823 30.216-31.056 47.843-10.719 20.417-26.096 36.164-42.917 45.003-8.87 4.46-17.95 7.036-26.748 7.036h-5.036c-10.911-0.839-20.984-3.357-31.056-7.554-1.542-0.386-3.261-0.411-4.913-7e-3 -27.408-12.498-47.068-37.594-51.322-67.98zm406.24-204.8c-0.839 0.839-34.413 94.007-82.256 128.42-12.59 9.233-21.823 19.305-28.538 31.895l-36.931 68.826c-17.626 32.734-42.807 57.915-73.862 73.862-24.341 12.59-48.682 16.787-70.505 13.43-9.233-0.839-18.466-5.036-27.698-11.751l-6.346-6.346c1.546 0.185 3.101 0.344 4.667 0.471h5.036c25.34 0 51.155-13.873 70.955-37.275 6.592-7.549 12.39-16.105 17.175-25.675 0 0 0-1e-3 1e-3 -1e-3 9.233-16.787 20.144-31.895 29.377-45.325l53.718-70.505 82.256-92.328c18.466-20.984 29.377-46.164 31.056-72.184 0.839-15.108 0-30.216-3.357-45.325-0.984-4.499-2.282-8.878-3.859-13.122 25.943 23.524 55.826 61.147 39.111 102.93z"/>
	<path d="m277.5 124.29c18.466 0 33.574-15.108 33.574-33.574s-15.108-33.574-33.574-33.574-33.574 15.108-33.574 33.574 15.108 33.574 33.574 33.574zm0-50.36c9.233 0 16.787 7.554 16.787 16.787s-7.554 16.787-16.787 16.787-16.787-7.554-16.787-16.787 7.554-16.787 16.787-16.787z"/>
	<path d="m235.54 275.37c18.466 0 33.574-15.108 33.574-33.574s-15.109-33.573-33.574-33.573-33.574 15.108-33.574 33.574 15.108 33.573 33.574 33.573zm0-50.36c9.233 0 16.787 7.554 16.787 16.787s-7.554 16.787-16.787 16.787-16.787-7.554-16.787-16.787 7.554-16.787 16.787-16.787z"/>
	<path d="m101.24 367.7c18.466 0 33.574-15.108 33.574-33.574s-15.108-33.574-33.574-33.574-33.574 15.108-33.574 33.574 15.108 33.574 33.574 33.574zm0-50.361c9.233 0 16.787 7.554 16.787 16.787s-7.554 16.787-16.787 16.787-16.787-7.554-16.787-16.787 7.554-16.787 16.787-16.787z"/>
	<path d="m201.96 157.86c5.036 0 8.393-3.357 8.393-8.393 0-4.197-3.357-8.393-8.393-8.393s-8.393 3.357-8.393 8.393 3.357 8.393 8.393 8.393z"/>
	<path d="m185.17 334.12c5.036 0 8.393-3.357 8.393-8.393 0-4.197-3.357-8.393-8.393-8.393s-8.393 3.357-8.393 8.393 3.357 8.393 8.393 8.393z"/>
	<path d="m395.01 208.22c-5.036 0-8.393 3.357-8.393 8.393s3.357 8.393 8.393 8.393 8.393-3.357 8.393-8.393c1e-3 -4.197-3.357-8.393-8.393-8.393z"/>
	<path d="m294.29 342.52c-5.036 0-8.393 3.357-8.393 8.393s3.357 8.393 8.393 8.393 8.393-3.357 8.393-8.393c0-4.197-3.357-8.393-8.393-8.393z"/>
</g>
</svg>
