<?xml version="1.0" standalone="no"?>
<!DOCTYPE svg PUBLIC "-//W3C//DTD SVG 20010904//EN"
 "http://www.w3.org/TR/2001/REC-SVG-20010904/DTD/svg10.dtd">
<svg version="1.0" xmlns="http://www.w3.org/2000/svg"
 width="736.000000pt" height="736.000000pt" viewBox="0 0 736.000000 736.000000"
 preserveAspectRatio="xMidYMid meet">
<metadata>
Created by potrace 1.11, written by Peter Selinger 2001-2013
</metadata>
<g transform="translate(0.000000,736.000000) scale(0.100000,-0.100000)"
fill="#000000" stroke="none">
<path d="M3815 7337 c3 -12 10 -44 16 -72 7 -27 13 -61 15 -75 2 -14 8 -47 14
-75 6 -27 13 -61 14 -75 2 -14 7 -41 10 -60 14 -81 16 -97 22 -145 3 -27 8
-61 10 -75 3 -14 7 -41 9 -60 2 -19 6 -64 10 -100 3 -36 8 -90 10 -120 3 -30
8 -102 12 -160 16 -211 8 -981 -12 -1210 -2 -25 -6 -85 -10 -135 -3 -49 -8
-115 -12 -145 -3 -30 -7 -71 -8 -90 -7 -90 -17 -198 -21 -223 -2 -15 -6 -53
-9 -85 -3 -31 -7 -66 -9 -77 -2 -11 -7 -54 -11 -95 -3 -41 -9 -88 -11 -105 -3
-16 -7 -46 -9 -65 -4 -37 -12 -106 -21 -180 -3 -25 -8 -53 -10 -62 -7 -22 -7
-22 96 3 47 11 96 22 110 24 14 2 25 4 25 5 0 1 7 3 15 5 8 1 40 8 70 14 57
12 66 13 140 27 25 4 47 8 50 9 3 0 27 4 53 9 27 4 58 9 68 11 32 6 239 34
302 40 32 4 66 8 77 10 10 2 56 6 102 10 45 3 99 8 118 10 100 11 379 19 650
17 343 -2 463 -6 705 -27 22 -2 72 -6 110 -9 39 -3 81 -8 95 -10 14 -3 57 -7
95 -11 39 -3 84 -8 100 -10 17 -3 50 -7 75 -9 25 -3 65 -9 90 -13 25 -4 54 -8
65 -8 22 0 22 2 11 115 -4 36 -9 88 -11 115 -3 28 -7 75 -11 106 -3 31 -7 76
-9 100 -3 24 -7 69 -10 99 -3 30 -7 83 -10 117 -2 34 -7 81 -9 105 -3 24 -8
79 -12 123 -3 44 -7 105 -10 135 -36 482 -35 1244 1 1565 3 22 7 78 10 125 3
47 8 96 10 110 2 14 6 49 9 78 8 67 17 149 22 187 2 17 6 53 9 80 6 52 21 157
31 213 6 35 0 38 -41 22 -14 -5 -36 -12 -48 -14 -12 -3 -47 -12 -77 -21 -30
-8 -75 -20 -100 -25 -25 -5 -79 -17 -120 -25 -41 -9 -86 -18 -100 -20 -14 -3
-36 -7 -49 -9 -13 -3 -49 -8 -80 -12 -31 -3 -65 -8 -76 -10 -11 -2 -49 -7 -85
-10 -36 -3 -78 -7 -95 -9 -168 -24 -754 -24 -1050 0 -148 12 -221 19 -320 30
-27 3 -68 7 -90 9 -22 2 -58 6 -80 10 -22 3 -78 10 -125 16 -47 6 -96 13 -110
15 -86 12 -118 17 -145 22 -38 6 -58 9 -120 18 -63 8 -84 12 -115 19 -14 3
-41 8 -60 11 -19 2 -45 7 -56 9 -86 18 -95 17 -89 -7z m1820 -382 c113 -21
217 -55 322 -106 71 -34 167 -91 183 -109 3 -3 30 -24 60 -47 160 -123 312
-338 394 -554 28 -74 73 -238 80 -289 2 -19 5 -35 6 -35 6 0 13 -131 14 -240
1 -148 -9 -252 -34 -370 -19 -91 -21 -98 -31 -117 -5 -10 -8 -18 -5 -18 15 0
-117 -291 -135 -298 -5 -2 -9 -8 -9 -14 0 -17 -86 -131 -147 -193 -125 -130
-263 -220 -428 -279 -153 -54 -232 -67 -430 -71 -201 -3 -383 25 -530 84 -60
24 -166 77 -203 102 -24 16 -46 29 -49 29 -7 0 -121 97 -153 131 -166 174
-264 353 -329 599 -10 41 -22 95 -25 120 -3 25 -10 68 -14 95 -9 54 -7 328 2
385 5 37 19 111 21 120 1 3 5 23 10 45 11 49 10 47 17 65 3 8 20 56 38 105 37
101 97 226 114 237 6 4 8 8 4 8 -9 0 95 152 137 200 53 60 157 160 167 160 5
0 6 5 3 10 -3 6 -1 10 5 10 7 0 30 15 53 33 131 105 351 196 517 214 30 3 56
6 58 8 10 8 244 -6 317 -20z"/>
<path d="M5298 6570 c-213 -55 -352 -170 -459 -378 -22 -43 -42 -85 -43 -93
-2 -8 -6 -21 -9 -29 -25 -57 -60 -237 -61 -312 -1 -21 -3 -38 -6 -38 -7 0 -4
-235 4 -299 6 -50 23 -130 44 -211 17 -66 85 -215 131 -285 97 -147 251 -270
386 -308 59 -17 175 -23 233 -12 61 11 77 15 121 32 187 70 339 237 426 468
13 36 24 67 25 70 0 3 0 6 1 8 11 38 29 119 35 162 3 28 9 70 13 95 12 82 4
322 -14 420 -70 378 -230 611 -481 702 -80 29 -251 33 -346 8z"/>
<path d="M345 7272 c1 -10 8 -36 15 -60 6 -24 13 -55 15 -70 2 -15 9 -52 15
-82 6 -30 13 -71 16 -90 3 -19 7 -42 9 -50 2 -8 7 -35 10 -60 3 -25 8 -61 10
-80 59 -451 73 -988 40 -1520 -3 -52 -8 -124 -10 -160 -2 -36 -6 -90 -9 -120
-8 -77 -16 -165 -21 -235 -2 -34 -6 -79 -9 -100 -6 -51 -17 -149 -21 -195 -2
-19 -6 -60 -10 -90 -4 -30 -8 -71 -11 -90 -2 -19 -5 -51 -8 -70 -3 -19 -8 -60
-11 -90 -9 -85 -14 -121 -21 -175 -4 -27 -8 -63 -10 -80 -1 -16 -5 -49 -8 -71
l-5 -41 57 14 c31 7 80 18 107 23 28 6 61 13 75 16 47 11 175 35 205 39 17 2
30 4 30 5 0 1 9 3 20 4 30 5 98 16 122 20 12 3 50 7 85 11 35 3 70 8 78 10 8
2 42 6 75 10 33 3 80 8 105 10 300 32 720 43 1100 30 188 -7 220 -8 370 -20
47 -3 110 -8 140 -10 66 -4 162 -14 210 -22 19 -3 42 -5 50 -5 14 0 92 -9 205
-23 28 -4 61 -8 75 -9 14 -2 51 -6 84 -11 l58 -7 -7 68 c-4 38 -9 83 -10 99
-7 81 -16 174 -20 205 -5 34 -13 136 -20 230 -1 25 -6 74 -9 110 -14 146 -20
220 -31 400 -27 426 -27 1173 0 1505 1 22 6 83 10 135 3 52 8 109 10 125 1 17
6 62 9 100 4 39 8 86 11 105 2 19 6 63 10 97 4 35 8 73 9 85 2 13 7 50 11 83
3 33 8 70 10 81 3 21 3 22 -48 7 -68 -19 -275 -72 -307 -78 -14 -3 -36 -7 -50
-10 -14 -4 -36 -8 -50 -10 -114 -20 -151 -26 -195 -31 -27 -4 -60 -7 -72 -7
-13 -1 -23 -3 -23 -6 0 -4 -19 -6 -43 -7 -23 -1 -94 -5 -157 -10 -250 -19
-815 -9 -1105 20 -33 3 -85 9 -115 12 -87 8 -143 15 -170 19 -14 2 -52 7 -85
11 -33 3 -67 8 -75 9 -9 2 -43 6 -75 10 -33 4 -69 9 -80 11 -45 9 -72 13 -115
18 -25 3 -56 8 -70 11 -14 2 -38 7 -55 10 -16 3 -52 8 -80 11 -27 3 -54 8 -58
11 -4 2 -24 7 -45 9 -43 5 -88 12 -119 18 -16 3 -21 0 -18 -12z m1999 -456
c52 -4 103 -8 113 -10 10 -2 43 -7 73 -10 30 -4 69 -9 85 -12 17 -3 50 -9 75
-14 25 -5 56 -11 70 -14 50 -10 76 -16 118 -25 23 -4 46 -12 50 -16 6 -6 11
-415 5 -415 -1 0 -37 14 -80 31 -118 47 -252 88 -338 105 -22 4 -47 9 -55 10
-81 18 -288 24 -385 11 -109 -14 -287 -79 -336 -123 -8 -8 -19 -14 -22 -14
-34 0 -237 -230 -237 -268 0 -6 -4 -12 -8 -14 -12 -5 -62 -123 -82 -195 -31
-108 -44 -208 -44 -343 1 -84 3 -117 20 -230 8 -57 58 -210 93 -285 56 -119
106 -191 190 -276 114 -114 249 -185 396 -208 62 -9 221 -7 265 4 14 3 39 9
55 11 17 3 34 9 38 13 4 4 9 194 10 421 l2 414 255 -1 c140 -1 258 -2 263 -2
4 -1 6 -247 5 -548 l-3 -548 -50 -13 c-27 -7 -93 -22 -145 -33 -122 -27 -121
-26 -166 -33 -22 -4 -52 -9 -69 -11 -167 -28 -472 -39 -620 -22 -370 40 -676
202 -840 444 -22 32 -42 60 -45 63 -11 10 -89 177 -110 234 -18 50 -35 114
-54 196 -2 8 -7 35 -11 60 -3 25 -9 58 -11 73 -24 153 -19 429 11 582 22 109
23 115 46 185 99 310 309 555 592 689 89 42 221 89 277 97 19 3 38 8 41 10 3
2 21 6 40 9 19 3 45 7 59 10 14 3 63 7 110 11 47 3 86 6 87 7 3 4 176 -1 267
-7z"/>
<path d="M3579 3676 c-2 -3 -27 -7 -54 -10 -27 -4 -57 -8 -65 -11 -8 -2 -37
-6 -65 -9 -27 -4 -66 -8 -85 -11 -19 -2 -57 -7 -85 -10 -27 -4 -66 -8 -85 -11
-19 -2 -66 -6 -105 -9 -38 -2 -70 -5 -70 -5 0 -1 -22 -3 -50 -6 -27 -2 -75 -6
-105 -9 -205 -18 -890 -25 -1170 -12 -171 9 -318 17 -395 22 -33 2 -100 7
-150 10 -49 3 -101 8 -115 10 -14 3 -68 8 -120 11 -85 6 -125 10 -125 14 0 0
-29 3 -65 5 -36 2 -86 7 -110 11 -25 3 -72 7 -105 7 -66 2 -62 9 -50 -78 3
-22 7 -56 10 -75 3 -19 7 -54 10 -76 3 -23 8 -59 10 -80 3 -22 7 -55 10 -74 2
-19 7 -64 10 -100 3 -36 8 -81 10 -100 3 -19 7 -78 11 -130 3 -52 7 -120 9
-150 27 -388 22 -1107 -10 -1570 -7 -103 -18 -252 -20 -285 -2 -16 -6 -66 -10
-110 -3 -44 -8 -93 -9 -110 -2 -16 -7 -64 -11 -105 -4 -41 -9 -86 -10 -100 -2
-14 -6 -54 -9 -90 -7 -70 -11 -98 -26 -205 -5 -38 -10 -82 -10 -97 l0 -27 45
13 c25 8 45 12 45 10 0 -2 10 0 23 5 13 5 41 12 61 15 21 4 42 8 46 11 3 2 22
7 41 10 19 3 52 10 74 15 22 5 54 11 70 14 17 3 55 10 85 16 30 7 69 14 85 16
17 3 41 7 55 10 32 8 48 10 145 24 44 7 87 13 95 15 8 2 44 6 80 10 36 4 67 8
70 10 4 3 46 7 175 20 17 2 68 6 115 10 47 4 101 8 120 10 228 23 800 23 1130
-1 209 -15 366 -29 437 -40 17 -3 51 -7 75 -9 46 -5 121 -14 153 -18 16 -1 20
3 18 23 -2 14 -4 49 -5 77 -2 29 -5 53 -8 53 -3 0 -5 24 -6 53 -1 53 -11 172
-19 217 -2 14 -7 61 -10 105 -3 44 -8 98 -10 120 -3 22 -7 67 -10 100 -2 33
-6 85 -9 115 -43 475 -50 1005 -21 1570 3 55 11 152 21 265 3 33 7 80 9 105 1
25 6 63 9 85 3 22 8 65 11 95 5 55 21 180 32 255 6 46 10 73 17 133 4 35 2 42
-13 42 -10 0 -20 -2 -22 -4z m-1474 -409 c215 -24 442 -110 591 -224 24 -18
47 -33 51 -33 12 0 189 -185 229 -240 52 -71 103 -158 142 -240 31 -68 65
-153 64 -167 0 -4 4 -16 10 -26 5 -10 12 -31 14 -45 3 -15 12 -53 20 -86 8
-32 13 -64 10 -71 -2 -7 -2 -16 2 -20 4 -4 7 -10 8 -13 0 -4 4 -43 8 -87 9
-89 10 -260 1 -320 -20 -143 -29 -190 -51 -270 -100 -363 -314 -639 -614 -790
-60 -30 -190 -78 -249 -90 -11 -3 -29 -7 -38 -9 -127 -28 -458 -29 -578 -2
-212 48 -367 118 -515 231 -150 116 -287 297 -363 482 -34 83 -40 97 -42 103
0 3 -8 30 -17 60 -16 52 -40 171 -54 270 -8 56 -8 291 1 351 49 355 194 659
424 889 110 109 225 193 341 247 66 31 174 71 207 77 26 5 165 27 183 30 19 2
176 -3 215 -7z"/>
<path d="M1852 2864 c-131 -33 -205 -74 -306 -172 -111 -107 -216 -325 -239
-499 -4 -22 -9 -52 -12 -65 -26 -109 -14 -505 16 -524 5 -3 7 -9 4 -14 -15
-24 113 -339 155 -380 3 -3 18 -23 34 -44 16 -22 55 -65 87 -95 188 -184 435
-224 667 -111 81 40 95 51 180 132 96 92 182 258 226 434 36 144 39 172 40
354 1 204 -15 331 -59 466 -22 66 -22 68 -24 77 0 4 -15 35 -32 70 -101 201
-234 323 -404 373 -91 26 -226 26 -333 -2z"/>
<path d="M6950 3645 c-36 -7 -87 -16 -115 -19 -106 -15 -121 -17 -145 -22 -14
-3 -45 -8 -70 -10 -25 -2 -76 -8 -115 -14 -38 -5 -95 -12 -125 -15 -30 -3 -66
-8 -80 -10 -14 -2 -54 -6 -90 -9 -36 -4 -90 -8 -120 -11 -30 -3 -89 -7 -130
-10 -41 -3 -104 -7 -140 -10 -333 -24 -1032 -24 -1360 0 -121 8 -241 17 -295
20 -33 2 -60 5 -60 5 0 1 -18 3 -40 5 -22 2 -67 6 -100 10 -33 3 -82 8 -108
11 l-48 5 6 -43 c3 -24 7 -59 10 -78 13 -95 16 -117 19 -137 3 -12 8 -54 11
-95 4 -40 9 -86 11 -103 8 -66 23 -237 29 -340 3 -44 7 -116 10 -160 12 -173
20 -634 11 -643 -3 -2 -1 -15 4 -28 6 -14 6 -26 0 -29 -6 -3 -6 -15 0 -29 5
-13 6 -26 4 -29 -3 -3 -7 -88 -9 -188 -5 -200 -15 -416 -30 -619 -2 -30 -6
-93 -10 -140 -3 -48 -7 -104 -10 -127 -2 -22 -7 -74 -10 -114 -4 -41 -9 -92
-11 -114 -2 -22 -6 -62 -8 -90 -6 -62 -16 -149 -22 -195 -5 -36 -9 -69 -20
-175 -7 -72 -7 -67 -5 -81 1 -8 17 -7 59 2 31 8 71 16 87 19 17 3 46 10 65 15
19 5 47 11 63 14 15 3 35 7 45 10 9 3 33 7 52 10 19 3 47 8 63 11 58 11 85 15
177 30 52 9 106 18 120 20 24 4 96 13 166 20 18 2 54 7 80 10 49 6 111 12 214
20 325 27 915 26 1280 0 130 -10 210 -16 245 -20 22 -2 65 -7 96 -10 31 -3 65
-7 75 -9 11 -2 51 -7 89 -10 39 -4 81 -9 95 -11 14 -2 49 -6 79 -9 29 -4 59
-8 65 -9 6 -1 10 7 10 18 -2 37 -15 180 -19 210 -7 52 -16 142 -20 202 -2 32
-7 87 -10 123 -3 36 -8 92 -10 125 -3 33 -7 89 -10 125 -53 688 -52 1335 2
1970 3 41 7 92 7 112 1 21 3 38 6 38 3 0 5 17 6 38 0 20 4 62 8 92 4 30 9 75
12 100 6 53 11 99 20 160 3 25 7 56 9 70 3 36 16 112 21 131 7 24 -13 27 -86
14z m-1135 -350 c196 -10 265 -19 470 -61 66 -14 131 -27 144 -30 59 -12 57
-4 57 -235 -1 -161 -4 -213 -13 -217 -7 -2 -13 2 -13 9 0 7 -3 9 -7 6 -3 -4
-11 -3 -17 2 -13 11 -269 99 -306 105 -14 3 -25 5 -25 6 0 1 -11 3 -25 6 -14
2 -50 9 -80 15 -87 18 -128 22 -250 23 -180 1 -288 -20 -417 -79 -277 -128
-444 -368 -507 -728 -13 -77 -15 -330 -3 -383 3 -12 8 -39 11 -60 17 -108 82
-291 135 -381 14 -25 31 -52 36 -62 35 -60 133 -169 198 -220 48 -37 181 -110
217 -120 8 -2 38 -11 65 -19 103 -30 401 -17 440 19 6 6 10 172 11 437 1 235
2 429 3 432 0 3 125 6 276 6 l275 0 0 -577 0 -577 -22 -7 c-13 -4 -32 -8 -44
-10 -11 -2 -38 -8 -60 -14 -21 -5 -50 -12 -64 -15 -14 -3 -61 -12 -104 -21
-127 -25 -134 -26 -291 -44 -151 -17 -431 -21 -546 -7 -48 6 -194 35 -252 50
-95 25 -264 102 -345 158 -150 103 -271 241 -354 404 -47 92 -99 229 -113 299
-5 22 -9 42 -10 45 -6 22 -16 71 -20 100 -3 19 -7 46 -10 60 -22 126 -22 459
0 570 3 14 7 36 10 50 12 63 18 89 36 150 10 36 19 68 19 72 2 16 77 179 103
223 30 50 61 100 67 105 3 3 18 23 35 45 76 103 283 274 363 299 12 4 22 12
22 17 0 5 6 9 13 9 6 0 23 6 37 13 70 37 260 93 375 112 77 13 101 15 215 21
63 3 117 7 118 9 2 2 9 2 15 0 7 -2 66 -7 132 -10z"/>
</g>
</svg>
