<?xml version="1.0" encoding="UTF-8" standalone="no"?>
<svg
   xmlns:dc="http://purl.org/dc/elements/1.1/"
   xmlns:cc="http://creativecommons.org/ns#"
   xmlns:rdf="http://www.w3.org/1999/02/22-rdf-syntax-ns#"
   xmlns:svg="http://www.w3.org/2000/svg"
   xmlns="http://www.w3.org/2000/svg"
   xmlns:sodipodi="http://sodipodi.sourceforge.net/DTD/sodipodi-0.dtd"
   xmlns:inkscape="http://www.inkscape.org/namespaces/inkscape"
   version="1.0"
   width="225.000000pt"
   height="192.000000pt"
   viewBox="0 0 225.000000 192.000000"
   preserveAspectRatio="xMidYMid meet"
   id="svg8"
   sodipodi:docname="arrow_chalk_next.svg"
   inkscape:version="0.92.5 (2060ec1f9f, 2020-04-08)">
  <metadata
     id="metadata14">
    <rdf:RDF>
      <cc:Work
         rdf:about="">
        <dc:format>image/svg+xml</dc:format>
        <dc:type
           rdf:resource="http://purl.org/dc/dcmitype/StillImage" />
      </cc:Work>
    </rdf:RDF>
  </metadata>
  <defs
     id="defs12" />
  <sodipodi:namedview
     pagecolor="#ffffff"
     bordercolor="#666666"
     borderopacity="1"
     objecttolerance="10"
     gridtolerance="10"
     guidetolerance="10"
     inkscape:pageopacity="0"
     inkscape:pageshadow="2"
     inkscape:window-width="1848"
     inkscape:window-height="1016"
     id="namedview10"
     showgrid="false"
     inkscape:zoom="0.921875"
     inkscape:cx="150"
     inkscape:cy="128"
     inkscape:window-x="72"
     inkscape:window-y="27"
     inkscape:window-maximized="1"
     inkscape:current-layer="svg8" />
  <g
     transform="translate(0.000000,192.000000) scale(0.100000,-0.100000)"
     id="g6"
     stroke="#000000"
     fill="#fefefe">
    <path
       d="M1357,1510 c -2,-3 -14,-7 -27,-9 -12,-2 -28,-12 -35,-22 -9,-13 -17,-14 -26,-7 -8,6 -45,16 -83,24 -57,10 -70,10 -76,-1 -10,-15 -1,-67 14,-88 31,-41 179,-180 256,-241 30,-24 60,-49 65,-55 6,-6 34,-25 63,-44 53,-34 70,-57 30,-42 -22,8 -68,3 -68,-8 0,-3 -33,-6 -73,-7 -39,-1 -85,-7 -102,-14 -19,-8 -68,-12 -130,-11 -56,1 -95,-2 -88,-7 8,-5 -9,-8 -40,-8 -72,-1 -140,-9 -155,-18 -7,-4 -12,-3 -12,2 0,14 -92,21 -109,8 -11,-8 -13,-8 -7,2 6,10 1,11 -21,6 -15,-4 -31,-11 -34,-17 -4,-6 -9,-5 -13,1 -4,7 -17,7 -37,2 -16,-5 -37,-6 -45,-3 -8,3 -14,0 -14,-6 0,-6 -7,-11 -16,-11 -8,0 -12,4 -9,10 3,5 -7,12 -22,15 -15,4 -36,10 -45,16 -27,14 -56,11 -67,-8 -9,-15 -12,-16 -20,-4 -7,11 -11,9 -20,-8 -7,-12 -17,-19 -22,-15 -6,4 -9,-2 -7,-13 2,-11 -3,-27 -10,-36 -11,-13 -11,-21 3,-47 9,-17 27,-36 40,-42 15,-7 25,-21 27,-37 l 3,-26 110,-3 c 166,-5 187,-5 220,1 17,3 83,8 148,12 65,3 142,13 171,20 29,8 90,19 135,24 45,6 89,15 99,20 9,5 42,12 72,16 30,4 64,12 74,17 11,6 42,16 70,24 28,7 62,15 76,19 23,6 24,5 8,-8 -10,-8 -18,-19 -18,-26 0,-6 -7,-11 -15,-11 -8,0 -23,-8 -33,-17 -10,-10 -41,-37 -68,-59 -90,-77 -99,-84 -125,-108 -15,-13 -41,-32 -58,-42 -17,-10 -31,-22 -31,-26 0,-4 -13,-14 -30,-23 -16,-8 -46,-29 -65,-47 -30,-26 -35,-35 -30,-60 6,-25 0,-35 -44,-78 -44,-43 -50,-53 -41,-70 18,-34 82,-27 149,18 89,60 164,117 195,151 17,17 33,31 38,31 11,0 48,38 48,49 0,5 12,17 28,26 24,16 95,85 86,85 -1,0 31,33 73,73 224,215 224,215 217,244 -4,16 -14,36 -22,46 -15,17 -17,17 -29,1 -10,-14 -18,-15 -45,-7 -21,6 -32,15 -30,25 3,20 -24,42 -43,34 -10,-3 -13,-2 -9,5 8,14 -35,59 -57,59 -12,0 -16,5 -13,15 4,10 -3,18 -21,25 -15,6 -29,19 -32,30 -3,10 -16,26 -29,35 -13,8 -24,22 -24,29 0,8 -14,29 -31,47 -17,18 -40,51 -51,73 -19,40 -82,108 -91,100 z m 503,-610 c 0,-8 5,-12 10,-9 6,4 8,11 5,16 -9,14 -15,11 -15,-7 z"
       id="path2"
       inkscape:connector-curvature="0"
       sodipodi:nodetypes="ccccccccccccccccccccsccccccscsccccssscccccccscccccccccccsccccsscccsscccssccsscscccccccssccccssccsccs" />
    <path
       d="M1715 1060 c-3 -5 -2 -10 4 -10 5 0 13 5 16 10 3 6 2 10 -4 10 -5 0 -13 -4 -16 -10z"
       id="path4" />
  </g>
</svg>
