<?xml version="1.0" encoding="UTF-8" standalone="no"?>
<!DOCTYPE svg PUBLIC "-//W3C//DTD SVG 20010904//EN" "http://www.w3.org/TR/2001/REC-SVG-20010904/DTD/svg10.dtd">
<svg version="1.0" xmlns="http://www.w3.org/2000/svg" width="173.000000pt" height="175.000000pt" viewBox="0 0 173.000000 175.000000" preserveAspectRatio="xMidYMid meet">

<g transform="translate(0.000000,175.000000) scale(0.100000,-0.100000)" fill="#000000" stroke="none">
<path d="M0 875 l0 -875 865 0 865 0 0 875 0 875 -865 0 -865 0 0 -875z m1297 620 c101 -51 193 -181 193 -275 l0 -45 -478 -478 c-443 -443 -481 -479 -518 -484 -134 -17 -314 156 -314 302 l0 50 478 477 477 478 56 0 c39 0 70 -7 106 -25z"/>
<path d="M762 1037 l-415 -415 50 -26 c64 -32 134 -102 166 -165 l24 -49 412 412 c301 301 411 417 411 434 0 81 -106 194 -204 216 -28 7 -49 -13 -444 -407z"/>
<path d="M263 535 c-18 -49 31 -146 101 -197 45 -32 107 -54 130 -45 22 9 20 59 -4 106 -47 93 -206 188 -227 136z"/>
</g>
</svg>